<mxfile host="app.diagrams.net" agent="Mozilla/5.0 (Windows NT 10.0; Win64; x64) AppleWebKit/537.36 (KHTML, like Gecko) Chrome/136.0.0.0 Safari/537.36" version="27.0.6">
  <diagram name="Side-1" id="ks5Pg_B8Dh5hZsyiyg6U">
    <mxGraphModel dx="1148" dy="518" grid="1" gridSize="10" guides="1" tooltips="1" connect="1" arrows="1" fold="1" page="1" pageScale="1" pageWidth="827" pageHeight="1169" math="0" shadow="0">
      <root>
        <mxCell id="0" />
        <mxCell id="1" parent="0" />
        <mxCell id="oj38en1lxCUS-liM161q-1" value="Brugeren" style="shape=umlLifeline;perimeter=lifelinePerimeter;whiteSpace=wrap;container=1;dropTarget=0;collapsible=0;recursiveResize=0;outlineConnect=0;portConstraint=eastwest;newEdgeStyle={&quot;edgeStyle&quot;:&quot;elbowEdgeStyle&quot;,&quot;elbow&quot;:&quot;vertical&quot;,&quot;curved&quot;:0,&quot;rounded&quot;:0};size=65;" vertex="1" parent="1">
          <mxGeometry x="20" y="81" width="150" height="420" as="geometry" />
        </mxCell>
        <mxCell id="oj38en1lxCUS-liM161q-2" value="System" style="shape=umlLifeline;perimeter=lifelinePerimeter;whiteSpace=wrap;container=1;dropTarget=0;collapsible=0;recursiveResize=0;outlineConnect=0;portConstraint=eastwest;newEdgeStyle={&quot;edgeStyle&quot;:&quot;elbowEdgeStyle&quot;,&quot;elbow&quot;:&quot;vertical&quot;,&quot;curved&quot;:0,&quot;rounded&quot;:0};size=65;" vertex="1" parent="1">
          <mxGeometry x="262" y="81" width="150" height="420" as="geometry" />
        </mxCell>
        <mxCell id="oj38en1lxCUS-liM161q-3" value="Vælg kasse view" style="verticalAlign=bottom;edgeStyle=elbowEdgeStyle;elbow=vertical;curved=0;rounded=0;endArrow=block;" edge="1" parent="1" source="oj38en1lxCUS-liM161q-1" target="oj38en1lxCUS-liM161q-2">
          <mxGeometry relative="1" as="geometry">
            <Array as="points">
              <mxPoint x="225" y="188" />
            </Array>
          </mxGeometry>
        </mxCell>
        <mxCell id="oj38en1lxCUS-liM161q-4" value="Kasse View" style="verticalAlign=bottom;edgeStyle=elbowEdgeStyle;elbow=vertical;curved=0;rounded=0;endArrow=block;" edge="1" parent="1" source="oj38en1lxCUS-liM161q-2" target="oj38en1lxCUS-liM161q-1">
          <mxGeometry relative="1" as="geometry">
            <Array as="points">
              <mxPoint x="228" y="240" />
            </Array>
          </mxGeometry>
        </mxCell>
        <mxCell id="oj38en1lxCUS-liM161q-5" value="Indtaster(nr, beskrivelse)" style="verticalAlign=bottom;edgeStyle=elbowEdgeStyle;elbow=vertical;curved=0;rounded=0;endArrow=block;" edge="1" parent="1" source="oj38en1lxCUS-liM161q-1" target="oj38en1lxCUS-liM161q-2">
          <mxGeometry relative="1" as="geometry">
            <Array as="points">
              <mxPoint x="225" y="292" />
            </Array>
          </mxGeometry>
        </mxCell>
        <mxCell id="oj38en1lxCUS-liM161q-6" value="Vælger tilføj kasse" style="verticalAlign=bottom;edgeStyle=elbowEdgeStyle;elbow=vertical;curved=0;rounded=0;endArrow=block;" edge="1" parent="1" source="oj38en1lxCUS-liM161q-1" target="oj38en1lxCUS-liM161q-2">
          <mxGeometry relative="1" as="geometry">
            <Array as="points">
              <mxPoint x="225" y="344" />
            </Array>
          </mxGeometry>
        </mxCell>
        <mxCell id="oj38en1lxCUS-liM161q-7" value="Tilføjer kasse til kasseliste" style="verticalAlign=bottom;edgeStyle=elbowEdgeStyle;elbow=horizontal;curved=0;rounded=0;endArrow=block;" edge="1" parent="1">
          <mxGeometry relative="1" as="geometry">
            <Array as="points">
              <mxPoint x="229" y="396" />
            </Array>
            <mxPoint x="337.5" y="396" as="sourcePoint" />
            <mxPoint x="95.5" y="396" as="targetPoint" />
          </mxGeometry>
        </mxCell>
        <mxCell id="oj38en1lxCUS-liM161q-15" value="Brugeren" style="shape=umlLifeline;perimeter=lifelinePerimeter;whiteSpace=wrap;container=1;dropTarget=0;collapsible=0;recursiveResize=0;outlineConnect=0;portConstraint=eastwest;newEdgeStyle={&quot;edgeStyle&quot;:&quot;elbowEdgeStyle&quot;,&quot;elbow&quot;:&quot;vertical&quot;,&quot;curved&quot;:0,&quot;rounded&quot;:0};size=65;" vertex="1" parent="1">
          <mxGeometry x="20" y="581" width="150" height="420" as="geometry" />
        </mxCell>
        <mxCell id="oj38en1lxCUS-liM161q-16" value="System" style="shape=umlLifeline;perimeter=lifelinePerimeter;whiteSpace=wrap;container=1;dropTarget=0;collapsible=0;recursiveResize=0;outlineConnect=0;portConstraint=eastwest;newEdgeStyle={&quot;edgeStyle&quot;:&quot;elbowEdgeStyle&quot;,&quot;elbow&quot;:&quot;vertical&quot;,&quot;curved&quot;:0,&quot;rounded&quot;:0};size=65;" vertex="1" parent="1">
          <mxGeometry x="333" y="581" width="150" height="420" as="geometry" />
        </mxCell>
        <mxCell id="oj38en1lxCUS-liM161q-17" value="Vælg Materiale view" style="verticalAlign=bottom;edgeStyle=elbowEdgeStyle;elbow=vertical;curved=0;rounded=0;endArrow=block;" edge="1" parent="1" source="oj38en1lxCUS-liM161q-15" target="oj38en1lxCUS-liM161q-16">
          <mxGeometry relative="1" as="geometry">
            <Array as="points">
              <mxPoint x="260" y="688" />
            </Array>
          </mxGeometry>
        </mxCell>
        <mxCell id="oj38en1lxCUS-liM161q-18" value="Materiale View" style="verticalAlign=bottom;edgeStyle=elbowEdgeStyle;elbow=vertical;curved=0;rounded=0;endArrow=block;" edge="1" parent="1" source="oj38en1lxCUS-liM161q-16" target="oj38en1lxCUS-liM161q-15">
          <mxGeometry relative="1" as="geometry">
            <Array as="points">
              <mxPoint x="263" y="740" />
            </Array>
          </mxGeometry>
        </mxCell>
        <mxCell id="oj38en1lxCUS-liM161q-19" value="Indtaster(Navm, Beskrivelse, Antal)" style="verticalAlign=bottom;edgeStyle=elbowEdgeStyle;elbow=vertical;curved=0;rounded=0;endArrow=block;" edge="1" parent="1" source="oj38en1lxCUS-liM161q-15" target="oj38en1lxCUS-liM161q-16">
          <mxGeometry relative="1" as="geometry">
            <Array as="points">
              <mxPoint x="260" y="792" />
            </Array>
          </mxGeometry>
        </mxCell>
        <mxCell id="oj38en1lxCUS-liM161q-20" value="Vælger tilføj Materiale" style="verticalAlign=bottom;edgeStyle=elbowEdgeStyle;elbow=vertical;curved=0;rounded=0;endArrow=block;" edge="1" parent="1" source="oj38en1lxCUS-liM161q-15" target="oj38en1lxCUS-liM161q-16">
          <mxGeometry relative="1" as="geometry">
            <Array as="points">
              <mxPoint x="260" y="844" />
            </Array>
          </mxGeometry>
        </mxCell>
        <mxCell id="oj38en1lxCUS-liM161q-21" value="Tilføjer til Materiale-liste" style="verticalAlign=bottom;edgeStyle=elbowEdgeStyle;elbow=vertical;curved=0;rounded=0;endArrow=block;" edge="1" parent="1" source="oj38en1lxCUS-liM161q-16" target="oj38en1lxCUS-liM161q-15">
          <mxGeometry relative="1" as="geometry">
            <Array as="points">
              <mxPoint x="263" y="896" />
            </Array>
          </mxGeometry>
        </mxCell>
        <mxCell id="oj38en1lxCUS-liM161q-22" value="Brugeren" style="shape=umlLifeline;perimeter=lifelinePerimeter;whiteSpace=wrap;container=1;dropTarget=0;collapsible=0;recursiveResize=0;outlineConnect=0;portConstraint=eastwest;newEdgeStyle={&quot;edgeStyle&quot;:&quot;elbowEdgeStyle&quot;,&quot;elbow&quot;:&quot;vertical&quot;,&quot;curved&quot;:0,&quot;rounded&quot;:0};size=65;" vertex="1" parent="1">
          <mxGeometry x="20" y="1081" width="150" height="524" as="geometry" />
        </mxCell>
        <mxCell id="oj38en1lxCUS-liM161q-23" value="System" style="shape=umlLifeline;perimeter=lifelinePerimeter;whiteSpace=wrap;container=1;dropTarget=0;collapsible=0;recursiveResize=0;outlineConnect=0;portConstraint=eastwest;newEdgeStyle={&quot;edgeStyle&quot;:&quot;elbowEdgeStyle&quot;,&quot;elbow&quot;:&quot;vertical&quot;,&quot;curved&quot;:0,&quot;rounded&quot;:0};size=65;" vertex="1" parent="1">
          <mxGeometry x="576" y="1081" width="150" height="524" as="geometry" />
        </mxCell>
        <mxCell id="oj38en1lxCUS-liM161q-24" value="Vælg Kasse view" style="verticalAlign=bottom;edgeStyle=elbowEdgeStyle;elbow=vertical;curved=0;rounded=0;endArrow=block;" edge="1" parent="1" source="oj38en1lxCUS-liM161q-22" target="oj38en1lxCUS-liM161q-23">
          <mxGeometry relative="1" as="geometry">
            <Array as="points">
              <mxPoint x="382" y="1188" />
            </Array>
          </mxGeometry>
        </mxCell>
        <mxCell id="oj38en1lxCUS-liM161q-25" value="Kasse View" style="verticalAlign=bottom;edgeStyle=elbowEdgeStyle;elbow=vertical;curved=0;rounded=0;endArrow=block;" edge="1" parent="1" source="oj38en1lxCUS-liM161q-23" target="oj38en1lxCUS-liM161q-22">
          <mxGeometry relative="1" as="geometry">
            <Array as="points">
              <mxPoint x="385" y="1240" />
            </Array>
          </mxGeometry>
        </mxCell>
        <mxCell id="oj38en1lxCUS-liM161q-26" value="Vælg Kasse fra kasse-liste" style="verticalAlign=bottom;edgeStyle=elbowEdgeStyle;elbow=vertical;curved=0;rounded=0;endArrow=block;" edge="1" parent="1" source="oj38en1lxCUS-liM161q-22" target="oj38en1lxCUS-liM161q-23">
          <mxGeometry relative="1" as="geometry">
            <Array as="points">
              <mxPoint x="382" y="1292" />
            </Array>
          </mxGeometry>
        </mxCell>
        <mxCell id="oj38en1lxCUS-liM161q-27" value="Kasse indholds liste og tilgængelige Materialer" style="verticalAlign=bottom;edgeStyle=elbowEdgeStyle;elbow=vertical;curved=0;rounded=0;endArrow=block;" edge="1" parent="1" source="oj38en1lxCUS-liM161q-23" target="oj38en1lxCUS-liM161q-22">
          <mxGeometry relative="1" as="geometry">
            <Array as="points">
              <mxPoint x="385" y="1344" />
            </Array>
          </mxGeometry>
        </mxCell>
        <mxCell id="oj38en1lxCUS-liM161q-28" value="Vælg Materiale fra Materiale-liste" style="verticalAlign=bottom;edgeStyle=elbowEdgeStyle;elbow=vertical;curved=0;rounded=0;endArrow=block;" edge="1" parent="1" source="oj38en1lxCUS-liM161q-22" target="oj38en1lxCUS-liM161q-23">
          <mxGeometry relative="1" as="geometry">
            <Array as="points">
              <mxPoint x="382" y="1396" />
            </Array>
          </mxGeometry>
        </mxCell>
        <mxCell id="oj38en1lxCUS-liM161q-29" value="Vælg Tilføj Materiale til Kasse" style="verticalAlign=bottom;edgeStyle=elbowEdgeStyle;elbow=vertical;curved=0;rounded=0;endArrow=block;" edge="1" parent="1" source="oj38en1lxCUS-liM161q-22" target="oj38en1lxCUS-liM161q-23">
          <mxGeometry relative="1" as="geometry">
            <Array as="points">
              <mxPoint x="382" y="1448" />
            </Array>
          </mxGeometry>
        </mxCell>
        <mxCell id="oj38en1lxCUS-liM161q-30" value="Tilføjer Materiale tilkassens indholds-liste og fjerne fra Materiale-liste" style="verticalAlign=bottom;edgeStyle=elbowEdgeStyle;elbow=vertical;curved=0;rounded=0;endArrow=block;" edge="1" parent="1" source="oj38en1lxCUS-liM161q-23" target="oj38en1lxCUS-liM161q-22">
          <mxGeometry relative="1" as="geometry">
            <Array as="points">
              <mxPoint x="385" y="1500" />
            </Array>
          </mxGeometry>
        </mxCell>
        <mxCell id="oj38en1lxCUS-liM161q-31" value="&lt;b&gt;&lt;font style=&quot;font-size: 18px;&quot;&gt;UC1&lt;/font&gt;&lt;/b&gt;" style="text;html=1;align=center;verticalAlign=middle;whiteSpace=wrap;rounded=0;" vertex="1" parent="1">
          <mxGeometry x="20" y="40" width="60" height="30" as="geometry" />
        </mxCell>
        <mxCell id="oj38en1lxCUS-liM161q-32" value="&lt;span style=&quot;color: rgb(0, 0, 0); font-family: Helvetica; font-style: normal; font-variant-ligatures: normal; font-variant-caps: normal; letter-spacing: normal; orphans: 2; text-align: center; text-indent: 0px; text-transform: none; widows: 2; word-spacing: 0px; -webkit-text-stroke-width: 0px; white-space: normal; background-color: rgb(236, 236, 236); text-decoration-thickness: initial; text-decoration-style: initial; text-decoration-color: initial; float: none; display: inline !important;&quot;&gt;&lt;b style=&quot;&quot;&gt;&lt;font style=&quot;font-size: 18px;&quot;&gt;UC2&lt;/font&gt;&lt;/b&gt;&lt;/span&gt;" style="text;whiteSpace=wrap;html=1;" vertex="1" parent="1">
          <mxGeometry x="40" y="542" width="70" height="35" as="geometry" />
        </mxCell>
        <mxCell id="oj38en1lxCUS-liM161q-33" value="&lt;span style=&quot;color: rgb(0, 0, 0); font-family: Helvetica; font-style: normal; font-variant-ligatures: normal; font-variant-caps: normal; letter-spacing: normal; orphans: 2; text-align: center; text-indent: 0px; text-transform: none; widows: 2; word-spacing: 0px; -webkit-text-stroke-width: 0px; white-space: normal; background-color: rgb(236, 236, 236); text-decoration-thickness: initial; text-decoration-style: initial; text-decoration-color: initial; float: none; display: inline !important;&quot;&gt;&lt;b style=&quot;&quot;&gt;&lt;font style=&quot;font-size: 18px;&quot;&gt;UC3&lt;/font&gt;&lt;/b&gt;&lt;/span&gt;" style="text;whiteSpace=wrap;html=1;" vertex="1" parent="1">
          <mxGeometry x="40" y="1040" width="70" height="35" as="geometry" />
        </mxCell>
        <mxCell id="oj38en1lxCUS-liM161q-34" value="&lt;span style=&quot;color: rgb(0, 0, 0); font-family: Helvetica; font-style: normal; font-variant-ligatures: normal; font-variant-caps: normal; letter-spacing: normal; orphans: 2; text-align: center; text-indent: 0px; text-transform: none; widows: 2; word-spacing: 0px; -webkit-text-stroke-width: 0px; white-space: normal; background-color: rgb(236, 236, 236); text-decoration-thickness: initial; text-decoration-style: initial; text-decoration-color: initial; float: none; display: inline !important;&quot;&gt;&lt;b style=&quot;&quot;&gt;&lt;font style=&quot;font-size: 18px;&quot;&gt;UC4&lt;/font&gt;&lt;/b&gt;&lt;/span&gt;" style="text;whiteSpace=wrap;html=1;" vertex="1" parent="1">
          <mxGeometry x="40" y="1640" width="70" height="35" as="geometry" />
        </mxCell>
        <mxCell id="oj38en1lxCUS-liM161q-35" value="Brugeren" style="shape=umlLifeline;perimeter=lifelinePerimeter;whiteSpace=wrap;container=1;dropTarget=0;collapsible=0;recursiveResize=0;outlineConnect=0;portConstraint=eastwest;newEdgeStyle={&quot;edgeStyle&quot;:&quot;elbowEdgeStyle&quot;,&quot;elbow&quot;:&quot;vertical&quot;,&quot;curved&quot;:0,&quot;rounded&quot;:0};size=65;" vertex="1" parent="1">
          <mxGeometry x="20" y="1700" width="150" height="472" as="geometry" />
        </mxCell>
        <mxCell id="oj38en1lxCUS-liM161q-36" value="System" style="shape=umlLifeline;perimeter=lifelinePerimeter;whiteSpace=wrap;container=1;dropTarget=0;collapsible=0;recursiveResize=0;outlineConnect=0;portConstraint=eastwest;newEdgeStyle={&quot;edgeStyle&quot;:&quot;elbowEdgeStyle&quot;,&quot;elbow&quot;:&quot;vertical&quot;,&quot;curved&quot;:0,&quot;rounded&quot;:0};size=65;" vertex="1" parent="1">
          <mxGeometry x="318" y="1700" width="150" height="472" as="geometry" />
        </mxCell>
        <mxCell id="oj38en1lxCUS-liM161q-37" value="Vælg Kasse-indhold view" style="verticalAlign=bottom;edgeStyle=elbowEdgeStyle;elbow=vertical;curved=0;rounded=0;endArrow=block;" edge="1" parent="1" source="oj38en1lxCUS-liM161q-35" target="oj38en1lxCUS-liM161q-36">
          <mxGeometry relative="1" as="geometry">
            <Array as="points">
              <mxPoint x="253" y="1807" />
            </Array>
          </mxGeometry>
        </mxCell>
        <mxCell id="oj38en1lxCUS-liM161q-38" value="Kasse-indhold View" style="verticalAlign=bottom;edgeStyle=elbowEdgeStyle;elbow=vertical;curved=0;rounded=0;endArrow=block;" edge="1" parent="1" source="oj38en1lxCUS-liM161q-36" target="oj38en1lxCUS-liM161q-35">
          <mxGeometry relative="1" as="geometry">
            <Array as="points">
              <mxPoint x="256" y="1859" />
            </Array>
          </mxGeometry>
        </mxCell>
        <mxCell id="oj38en1lxCUS-liM161q-39" value="Vælg Kasse fra kasse-liste" style="verticalAlign=bottom;edgeStyle=elbowEdgeStyle;elbow=vertical;curved=0;rounded=0;endArrow=block;" edge="1" parent="1" source="oj38en1lxCUS-liM161q-35" target="oj38en1lxCUS-liM161q-36">
          <mxGeometry relative="1" as="geometry">
            <Array as="points">
              <mxPoint x="253" y="1911" />
            </Array>
          </mxGeometry>
        </mxCell>
        <mxCell id="oj38en1lxCUS-liM161q-40" value="Kasses indhold" style="verticalAlign=bottom;edgeStyle=elbowEdgeStyle;elbow=vertical;curved=0;rounded=0;endArrow=block;" edge="1" parent="1" source="oj38en1lxCUS-liM161q-36" target="oj38en1lxCUS-liM161q-35">
          <mxGeometry relative="1" as="geometry">
            <Array as="points">
              <mxPoint x="256" y="1963" />
            </Array>
          </mxGeometry>
        </mxCell>
        <mxCell id="oj38en1lxCUS-liM161q-41" value="Vælg Udskriv" style="verticalAlign=bottom;edgeStyle=elbowEdgeStyle;elbow=vertical;curved=0;rounded=0;endArrow=block;" edge="1" parent="1" source="oj38en1lxCUS-liM161q-35" target="oj38en1lxCUS-liM161q-36">
          <mxGeometry relative="1" as="geometry">
            <Array as="points">
              <mxPoint x="253" y="2015" />
            </Array>
          </mxGeometry>
        </mxCell>
        <mxCell id="oj38en1lxCUS-liM161q-42" value="PDF(Kassens indhold, antal dele)" style="verticalAlign=bottom;edgeStyle=elbowEdgeStyle;elbow=vertical;curved=0;rounded=0;endArrow=block;" edge="1" parent="1" source="oj38en1lxCUS-liM161q-36" target="oj38en1lxCUS-liM161q-35">
          <mxGeometry relative="1" as="geometry">
            <Array as="points">
              <mxPoint x="256" y="2067" />
            </Array>
          </mxGeometry>
        </mxCell>
        <mxCell id="oj38en1lxCUS-liM161q-43" value="&lt;span style=&quot;color: rgb(0, 0, 0); font-family: Helvetica; font-style: normal; font-variant-ligatures: normal; font-variant-caps: normal; letter-spacing: normal; orphans: 2; text-align: center; text-indent: 0px; text-transform: none; widows: 2; word-spacing: 0px; -webkit-text-stroke-width: 0px; white-space: normal; background-color: rgb(236, 236, 236); text-decoration-thickness: initial; text-decoration-style: initial; text-decoration-color: initial; float: none; display: inline !important;&quot;&gt;&lt;b style=&quot;&quot;&gt;&lt;font style=&quot;font-size: 18px;&quot;&gt;UC5&lt;/font&gt;&lt;/b&gt;&lt;/span&gt;" style="text;whiteSpace=wrap;html=1;" vertex="1" parent="1">
          <mxGeometry x="40" y="2220" width="70" height="35" as="geometry" />
        </mxCell>
        <mxCell id="oj38en1lxCUS-liM161q-51" value="Brugeren" style="shape=umlLifeline;perimeter=lifelinePerimeter;whiteSpace=wrap;container=1;dropTarget=0;collapsible=0;recursiveResize=0;outlineConnect=0;portConstraint=eastwest;newEdgeStyle={&quot;edgeStyle&quot;:&quot;elbowEdgeStyle&quot;,&quot;elbow&quot;:&quot;vertical&quot;,&quot;curved&quot;:0,&quot;rounded&quot;:0};size=65;" vertex="1" parent="1">
          <mxGeometry x="20" y="2280" width="150" height="368" as="geometry" />
        </mxCell>
        <mxCell id="oj38en1lxCUS-liM161q-52" value="System" style="shape=umlLifeline;perimeter=lifelinePerimeter;whiteSpace=wrap;container=1;dropTarget=0;collapsible=0;recursiveResize=0;outlineConnect=0;portConstraint=eastwest;newEdgeStyle={&quot;edgeStyle&quot;:&quot;elbowEdgeStyle&quot;,&quot;elbow&quot;:&quot;vertical&quot;,&quot;curved&quot;:0,&quot;rounded&quot;:0};size=65;" vertex="1" parent="1">
          <mxGeometry x="335" y="2280" width="150" height="368" as="geometry" />
        </mxCell>
        <mxCell id="oj38en1lxCUS-liM161q-53" value="Vælg Matrial-placering view" style="verticalAlign=bottom;edgeStyle=elbowEdgeStyle;elbow=vertical;curved=0;rounded=0;endArrow=block;" edge="1" parent="1" source="oj38en1lxCUS-liM161q-51" target="oj38en1lxCUS-liM161q-52">
          <mxGeometry relative="1" as="geometry">
            <Array as="points">
              <mxPoint x="261" y="2387" />
            </Array>
          </mxGeometry>
        </mxCell>
        <mxCell id="oj38en1lxCUS-liM161q-54" value="Matrial- placering View" style="verticalAlign=bottom;edgeStyle=elbowEdgeStyle;elbow=vertical;curved=0;rounded=0;endArrow=block;" edge="1" parent="1" source="oj38en1lxCUS-liM161q-52" target="oj38en1lxCUS-liM161q-51">
          <mxGeometry relative="1" as="geometry">
            <Array as="points">
              <mxPoint x="264" y="2439" />
            </Array>
          </mxGeometry>
        </mxCell>
        <mxCell id="oj38en1lxCUS-liM161q-55" value="Vælg Udskriv" style="verticalAlign=bottom;edgeStyle=elbowEdgeStyle;elbow=vertical;curved=0;rounded=0;endArrow=block;" edge="1" parent="1" source="oj38en1lxCUS-liM161q-51" target="oj38en1lxCUS-liM161q-52">
          <mxGeometry relative="1" as="geometry">
            <Array as="points">
              <mxPoint x="261" y="2491" />
            </Array>
          </mxGeometry>
        </mxCell>
        <mxCell id="oj38en1lxCUS-liM161q-56" value="PDF(Matriale, antal dele, Placering)" style="verticalAlign=bottom;edgeStyle=elbowEdgeStyle;elbow=vertical;curved=0;rounded=0;endArrow=block;" edge="1" parent="1" source="oj38en1lxCUS-liM161q-52" target="oj38en1lxCUS-liM161q-51">
          <mxGeometry relative="1" as="geometry">
            <Array as="points">
              <mxPoint x="264" y="2543" />
            </Array>
          </mxGeometry>
        </mxCell>
        <mxCell id="oj38en1lxCUS-liM161q-57" value="&lt;span style=&quot;color: rgb(0, 0, 0); font-family: Helvetica; font-style: normal; font-variant-ligatures: normal; font-variant-caps: normal; letter-spacing: normal; orphans: 2; text-align: center; text-indent: 0px; text-transform: none; widows: 2; word-spacing: 0px; -webkit-text-stroke-width: 0px; white-space: normal; background-color: rgb(236, 236, 236); text-decoration-thickness: initial; text-decoration-style: initial; text-decoration-color: initial; float: none; display: inline !important;&quot;&gt;&lt;b style=&quot;&quot;&gt;&lt;font style=&quot;font-size: 18px;&quot;&gt;UC6&lt;/font&gt;&lt;/b&gt;&lt;/span&gt;" style="text;whiteSpace=wrap;html=1;" vertex="1" parent="1">
          <mxGeometry x="40" y="2690" width="70" height="35" as="geometry" />
        </mxCell>
        <mxCell id="oj38en1lxCUS-liM161q-58" value="Brugeren" style="shape=umlLifeline;perimeter=lifelinePerimeter;whiteSpace=wrap;container=1;dropTarget=0;collapsible=0;recursiveResize=0;outlineConnect=0;portConstraint=eastwest;newEdgeStyle={&quot;edgeStyle&quot;:&quot;elbowEdgeStyle&quot;,&quot;elbow&quot;:&quot;vertical&quot;,&quot;curved&quot;:0,&quot;rounded&quot;:0};size=65;" vertex="1" parent="1">
          <mxGeometry x="20" y="2750" width="150" height="420" as="geometry" />
        </mxCell>
        <mxCell id="oj38en1lxCUS-liM161q-59" value="System" style="shape=umlLifeline;perimeter=lifelinePerimeter;whiteSpace=wrap;container=1;dropTarget=0;collapsible=0;recursiveResize=0;outlineConnect=0;portConstraint=eastwest;newEdgeStyle={&quot;edgeStyle&quot;:&quot;elbowEdgeStyle&quot;,&quot;elbow&quot;:&quot;vertical&quot;,&quot;curved&quot;:0,&quot;rounded&quot;:0};size=65;" vertex="1" parent="1">
          <mxGeometry x="414" y="2750" width="150" height="420" as="geometry" />
        </mxCell>
        <mxCell id="oj38en1lxCUS-liM161q-60" value="Vælg Aktivitet view" style="verticalAlign=bottom;edgeStyle=elbowEdgeStyle;elbow=vertical;curved=0;rounded=0;endArrow=block;" edge="1" parent="1" source="oj38en1lxCUS-liM161q-58" target="oj38en1lxCUS-liM161q-59">
          <mxGeometry relative="1" as="geometry">
            <Array as="points">
              <mxPoint x="301" y="2857" />
            </Array>
          </mxGeometry>
        </mxCell>
        <mxCell id="oj38en1lxCUS-liM161q-61" value="Aktivitet View" style="verticalAlign=bottom;edgeStyle=elbowEdgeStyle;elbow=vertical;curved=0;rounded=0;endArrow=block;" edge="1" parent="1" source="oj38en1lxCUS-liM161q-59" target="oj38en1lxCUS-liM161q-58">
          <mxGeometry relative="1" as="geometry">
            <Array as="points">
              <mxPoint x="304" y="2909" />
            </Array>
          </mxGeometry>
        </mxCell>
        <mxCell id="oj38en1lxCUS-liM161q-62" value="Indtaster(Navn, beskrivelse, forventet længde)" style="verticalAlign=bottom;edgeStyle=elbowEdgeStyle;elbow=vertical;curved=0;rounded=0;endArrow=block;" edge="1" parent="1" source="oj38en1lxCUS-liM161q-58" target="oj38en1lxCUS-liM161q-59">
          <mxGeometry relative="1" as="geometry">
            <Array as="points">
              <mxPoint x="301" y="2961" />
            </Array>
          </mxGeometry>
        </mxCell>
        <mxCell id="oj38en1lxCUS-liM161q-63" value="Vælger tilføj Aktivitet" style="verticalAlign=bottom;edgeStyle=elbowEdgeStyle;elbow=vertical;curved=0;rounded=0;endArrow=block;" edge="1" parent="1" source="oj38en1lxCUS-liM161q-58" target="oj38en1lxCUS-liM161q-59">
          <mxGeometry relative="1" as="geometry">
            <Array as="points">
              <mxPoint x="301" y="3013" />
            </Array>
          </mxGeometry>
        </mxCell>
        <mxCell id="oj38en1lxCUS-liM161q-64" value="Tilføjer til Aktivits liste" style="verticalAlign=bottom;edgeStyle=elbowEdgeStyle;elbow=vertical;curved=0;rounded=0;endArrow=block;" edge="1" parent="1" source="oj38en1lxCUS-liM161q-59" target="oj38en1lxCUS-liM161q-58">
          <mxGeometry relative="1" as="geometry">
            <Array as="points">
              <mxPoint x="304" y="3065" />
            </Array>
          </mxGeometry>
        </mxCell>
        <mxCell id="oj38en1lxCUS-liM161q-65" value="&lt;span style=&quot;color: rgb(0, 0, 0); font-family: Helvetica; font-style: normal; font-variant-ligatures: normal; font-variant-caps: normal; letter-spacing: normal; orphans: 2; text-align: center; text-indent: 0px; text-transform: none; widows: 2; word-spacing: 0px; -webkit-text-stroke-width: 0px; white-space: normal; background-color: rgb(236, 236, 236); text-decoration-thickness: initial; text-decoration-style: initial; text-decoration-color: initial; float: none; display: inline !important;&quot;&gt;&lt;b style=&quot;&quot;&gt;&lt;font style=&quot;font-size: 18px;&quot;&gt;UC7&lt;/font&gt;&lt;/b&gt;&lt;/span&gt;" style="text;whiteSpace=wrap;html=1;" vertex="1" parent="1">
          <mxGeometry x="50" y="3220" width="70" height="35" as="geometry" />
        </mxCell>
        <mxCell id="oj38en1lxCUS-liM161q-66" value="Brugeren" style="shape=umlLifeline;perimeter=lifelinePerimeter;whiteSpace=wrap;container=1;dropTarget=0;collapsible=0;recursiveResize=0;outlineConnect=0;portConstraint=eastwest;newEdgeStyle={&quot;edgeStyle&quot;:&quot;elbowEdgeStyle&quot;,&quot;elbow&quot;:&quot;vertical&quot;,&quot;curved&quot;:0,&quot;rounded&quot;:0};size=65;" vertex="1" parent="1">
          <mxGeometry x="20" y="3280" width="150" height="524" as="geometry" />
        </mxCell>
        <mxCell id="oj38en1lxCUS-liM161q-67" value="System" style="shape=umlLifeline;perimeter=lifelinePerimeter;whiteSpace=wrap;container=1;dropTarget=0;collapsible=0;recursiveResize=0;outlineConnect=0;portConstraint=eastwest;newEdgeStyle={&quot;edgeStyle&quot;:&quot;elbowEdgeStyle&quot;,&quot;elbow&quot;:&quot;vertical&quot;,&quot;curved&quot;:0,&quot;rounded&quot;:0};size=65;" vertex="1" parent="1">
          <mxGeometry x="752" y="3280" width="150" height="524" as="geometry" />
        </mxCell>
        <mxCell id="oj38en1lxCUS-liM161q-68" value="Vælg Aktivitets view" style="verticalAlign=bottom;edgeStyle=elbowEdgeStyle;elbow=vertical;curved=0;rounded=0;endArrow=block;" edge="1" parent="1" source="oj38en1lxCUS-liM161q-66" target="oj38en1lxCUS-liM161q-67">
          <mxGeometry relative="1" as="geometry">
            <Array as="points">
              <mxPoint x="470" y="3387" />
            </Array>
          </mxGeometry>
        </mxCell>
        <mxCell id="oj38en1lxCUS-liM161q-69" value="Aktivitets View" style="verticalAlign=bottom;edgeStyle=elbowEdgeStyle;elbow=vertical;curved=0;rounded=0;endArrow=block;" edge="1" parent="1" source="oj38en1lxCUS-liM161q-67" target="oj38en1lxCUS-liM161q-66">
          <mxGeometry relative="1" as="geometry">
            <Array as="points">
              <mxPoint x="473" y="3439" />
            </Array>
          </mxGeometry>
        </mxCell>
        <mxCell id="oj38en1lxCUS-liM161q-70" value="Vælg Aktivitet fra Aktivitet-liste" style="verticalAlign=bottom;edgeStyle=elbowEdgeStyle;elbow=vertical;curved=0;rounded=0;endArrow=block;" edge="1" parent="1" source="oj38en1lxCUS-liM161q-66" target="oj38en1lxCUS-liM161q-67">
          <mxGeometry relative="1" as="geometry">
            <Array as="points">
              <mxPoint x="470" y="3491" />
            </Array>
          </mxGeometry>
        </mxCell>
        <mxCell id="oj38en1lxCUS-liM161q-71" value="Aktivitets tilknyttede Materiale-liste og tilgængelige Materialer-liste" style="verticalAlign=bottom;edgeStyle=elbowEdgeStyle;elbow=vertical;curved=0;rounded=0;endArrow=block;" edge="1" parent="1" source="oj38en1lxCUS-liM161q-67" target="oj38en1lxCUS-liM161q-66">
          <mxGeometry relative="1" as="geometry">
            <Array as="points">
              <mxPoint x="473" y="3543" />
            </Array>
          </mxGeometry>
        </mxCell>
        <mxCell id="oj38en1lxCUS-liM161q-72" value="Vælg Materiale fra Materiale-liste" style="verticalAlign=bottom;edgeStyle=elbowEdgeStyle;elbow=vertical;curved=0;rounded=0;endArrow=block;" edge="1" parent="1" source="oj38en1lxCUS-liM161q-66" target="oj38en1lxCUS-liM161q-67">
          <mxGeometry relative="1" as="geometry">
            <Array as="points">
              <mxPoint x="470" y="3595" />
            </Array>
          </mxGeometry>
        </mxCell>
        <mxCell id="oj38en1lxCUS-liM161q-73" value="Vælg Tilføj Materiale til Aktivitet" style="verticalAlign=bottom;edgeStyle=elbowEdgeStyle;elbow=vertical;curved=0;rounded=0;endArrow=block;" edge="1" parent="1" source="oj38en1lxCUS-liM161q-66" target="oj38en1lxCUS-liM161q-67">
          <mxGeometry relative="1" as="geometry">
            <Array as="points">
              <mxPoint x="470" y="3647" />
            </Array>
          </mxGeometry>
        </mxCell>
        <mxCell id="oj38en1lxCUS-liM161q-74" value="Tilføjer Materiale Aktivitets tilknyttede Materiale-liste og fjerne fra tilgængelige Materiale-liste" style="verticalAlign=bottom;edgeStyle=elbowEdgeStyle;elbow=vertical;curved=0;rounded=0;endArrow=block;" edge="1" parent="1" source="oj38en1lxCUS-liM161q-67" target="oj38en1lxCUS-liM161q-66">
          <mxGeometry relative="1" as="geometry">
            <Array as="points">
              <mxPoint x="473" y="3699" />
            </Array>
          </mxGeometry>
        </mxCell>
        <mxCell id="oj38en1lxCUS-liM161q-82" value="&lt;span style=&quot;color: rgb(0, 0, 0); font-family: Helvetica; font-style: normal; font-variant-ligatures: normal; font-variant-caps: normal; letter-spacing: normal; orphans: 2; text-align: center; text-indent: 0px; text-transform: none; widows: 2; word-spacing: 0px; -webkit-text-stroke-width: 0px; white-space: normal; background-color: rgb(236, 236, 236); text-decoration-thickness: initial; text-decoration-style: initial; text-decoration-color: initial; float: none; display: inline !important;&quot;&gt;&lt;b style=&quot;&quot;&gt;&lt;font style=&quot;font-size: 18px;&quot;&gt;UC9&lt;/font&gt;&lt;/b&gt;&lt;/span&gt;" style="text;whiteSpace=wrap;html=1;" vertex="1" parent="1">
          <mxGeometry x="40" y="3850" width="70" height="35" as="geometry" />
        </mxCell>
        <mxCell id="oj38en1lxCUS-liM161q-83" value="Brugeren" style="shape=umlLifeline;perimeter=lifelinePerimeter;whiteSpace=wrap;container=1;dropTarget=0;collapsible=0;recursiveResize=0;outlineConnect=0;portConstraint=eastwest;newEdgeStyle={&quot;edgeStyle&quot;:&quot;elbowEdgeStyle&quot;,&quot;elbow&quot;:&quot;vertical&quot;,&quot;curved&quot;:0,&quot;rounded&quot;:0};size=65;" vertex="1" parent="1">
          <mxGeometry x="20" y="3910" width="150" height="420" as="geometry" />
        </mxCell>
        <mxCell id="oj38en1lxCUS-liM161q-84" value="System" style="shape=umlLifeline;perimeter=lifelinePerimeter;whiteSpace=wrap;container=1;dropTarget=0;collapsible=0;recursiveResize=0;outlineConnect=0;portConstraint=eastwest;newEdgeStyle={&quot;edgeStyle&quot;:&quot;elbowEdgeStyle&quot;,&quot;elbow&quot;:&quot;vertical&quot;,&quot;curved&quot;:0,&quot;rounded&quot;:0};size=65;" vertex="1" parent="1">
          <mxGeometry x="284" y="3910" width="150" height="420" as="geometry" />
        </mxCell>
        <mxCell id="oj38en1lxCUS-liM161q-85" value="Vælg Workshop view" style="verticalAlign=bottom;edgeStyle=elbowEdgeStyle;elbow=vertical;curved=0;rounded=0;endArrow=block;" edge="1" parent="1" source="oj38en1lxCUS-liM161q-83" target="oj38en1lxCUS-liM161q-84">
          <mxGeometry relative="1" as="geometry">
            <Array as="points">
              <mxPoint x="236" y="4017" />
            </Array>
          </mxGeometry>
        </mxCell>
        <mxCell id="oj38en1lxCUS-liM161q-86" value="Workshop View" style="verticalAlign=bottom;edgeStyle=elbowEdgeStyle;elbow=vertical;curved=0;rounded=0;endArrow=block;" edge="1" parent="1" source="oj38en1lxCUS-liM161q-84" target="oj38en1lxCUS-liM161q-83">
          <mxGeometry relative="1" as="geometry">
            <Array as="points">
              <mxPoint x="239" y="4069" />
            </Array>
          </mxGeometry>
        </mxCell>
        <mxCell id="oj38en1lxCUS-liM161q-87" value="Indtaster(Navn, beskrivelse)" style="verticalAlign=bottom;edgeStyle=elbowEdgeStyle;elbow=vertical;curved=0;rounded=0;endArrow=block;" edge="1" parent="1" source="oj38en1lxCUS-liM161q-83" target="oj38en1lxCUS-liM161q-84">
          <mxGeometry relative="1" as="geometry">
            <Array as="points">
              <mxPoint x="236" y="4121" />
            </Array>
          </mxGeometry>
        </mxCell>
        <mxCell id="oj38en1lxCUS-liM161q-88" value="Vælger tilføj Workshop" style="verticalAlign=bottom;edgeStyle=elbowEdgeStyle;elbow=vertical;curved=0;rounded=0;endArrow=block;" edge="1" parent="1" source="oj38en1lxCUS-liM161q-83" target="oj38en1lxCUS-liM161q-84">
          <mxGeometry relative="1" as="geometry">
            <Array as="points">
              <mxPoint x="236" y="4173" />
            </Array>
          </mxGeometry>
        </mxCell>
        <mxCell id="oj38en1lxCUS-liM161q-89" value="Tilføjer til Workshop liste" style="verticalAlign=bottom;edgeStyle=elbowEdgeStyle;elbow=vertical;curved=0;rounded=0;endArrow=block;" edge="1" parent="1" source="oj38en1lxCUS-liM161q-84" target="oj38en1lxCUS-liM161q-83">
          <mxGeometry relative="1" as="geometry">
            <Array as="points">
              <mxPoint x="239" y="4225" />
            </Array>
          </mxGeometry>
        </mxCell>
        <mxCell id="oj38en1lxCUS-liM161q-90" value="&lt;span style=&quot;color: rgb(0, 0, 0); font-family: Helvetica; font-style: normal; font-variant-ligatures: normal; font-variant-caps: normal; letter-spacing: normal; orphans: 2; text-align: center; text-indent: 0px; text-transform: none; widows: 2; word-spacing: 0px; -webkit-text-stroke-width: 0px; white-space: normal; background-color: rgb(236, 236, 236); text-decoration-thickness: initial; text-decoration-style: initial; text-decoration-color: initial; float: none; display: inline !important;&quot;&gt;&lt;b style=&quot;&quot;&gt;&lt;font style=&quot;font-size: 18px;&quot;&gt;UC10&lt;/font&gt;&lt;/b&gt;&lt;/span&gt;" style="text;whiteSpace=wrap;html=1;" vertex="1" parent="1">
          <mxGeometry x="40" y="4390" width="70" height="35" as="geometry" />
        </mxCell>
        <mxCell id="oj38en1lxCUS-liM161q-91" value="Brugeren" style="shape=umlLifeline;perimeter=lifelinePerimeter;whiteSpace=wrap;container=1;dropTarget=0;collapsible=0;recursiveResize=0;outlineConnect=0;portConstraint=eastwest;newEdgeStyle={&quot;edgeStyle&quot;:&quot;elbowEdgeStyle&quot;,&quot;elbow&quot;:&quot;vertical&quot;,&quot;curved&quot;:0,&quot;rounded&quot;:0};size=65;" vertex="1" parent="1">
          <mxGeometry x="20" y="4450" width="150" height="524" as="geometry" />
        </mxCell>
        <mxCell id="oj38en1lxCUS-liM161q-92" value="System" style="shape=umlLifeline;perimeter=lifelinePerimeter;whiteSpace=wrap;container=1;dropTarget=0;collapsible=0;recursiveResize=0;outlineConnect=0;portConstraint=eastwest;newEdgeStyle={&quot;edgeStyle&quot;:&quot;elbowEdgeStyle&quot;,&quot;elbow&quot;:&quot;vertical&quot;,&quot;curved&quot;:0,&quot;rounded&quot;:0};size=65;" vertex="1" parent="1">
          <mxGeometry x="749" y="4450" width="150" height="524" as="geometry" />
        </mxCell>
        <mxCell id="oj38en1lxCUS-liM161q-93" value="Vælg Workshop view" style="verticalAlign=bottom;edgeStyle=elbowEdgeStyle;elbow=vertical;curved=0;rounded=0;endArrow=block;" edge="1" parent="1" source="oj38en1lxCUS-liM161q-91" target="oj38en1lxCUS-liM161q-92">
          <mxGeometry relative="1" as="geometry">
            <Array as="points">
              <mxPoint x="468" y="4557" />
            </Array>
          </mxGeometry>
        </mxCell>
        <mxCell id="oj38en1lxCUS-liM161q-94" value="Workshop View" style="verticalAlign=bottom;edgeStyle=elbowEdgeStyle;elbow=vertical;curved=0;rounded=0;endArrow=block;" edge="1" parent="1" source="oj38en1lxCUS-liM161q-92" target="oj38en1lxCUS-liM161q-91">
          <mxGeometry relative="1" as="geometry">
            <Array as="points">
              <mxPoint x="471" y="4609" />
            </Array>
          </mxGeometry>
        </mxCell>
        <mxCell id="oj38en1lxCUS-liM161q-95" value="Vælg Workshop fra Workshop-liste" style="verticalAlign=bottom;edgeStyle=elbowEdgeStyle;elbow=vertical;curved=0;rounded=0;endArrow=block;" edge="1" parent="1" source="oj38en1lxCUS-liM161q-91" target="oj38en1lxCUS-liM161q-92">
          <mxGeometry relative="1" as="geometry">
            <Array as="points">
              <mxPoint x="468" y="4661" />
            </Array>
          </mxGeometry>
        </mxCell>
        <mxCell id="oj38en1lxCUS-liM161q-96" value="Workshop tilknyttede Aktivitets-liste og tilgængelige Aktivitets-liste" style="verticalAlign=bottom;edgeStyle=elbowEdgeStyle;elbow=vertical;curved=0;rounded=0;endArrow=block;" edge="1" parent="1" source="oj38en1lxCUS-liM161q-92" target="oj38en1lxCUS-liM161q-91">
          <mxGeometry relative="1" as="geometry">
            <Array as="points">
              <mxPoint x="471" y="4713" />
            </Array>
          </mxGeometry>
        </mxCell>
        <mxCell id="oj38en1lxCUS-liM161q-97" value="Vælg Aktivitets fra Aktivitets-liste" style="verticalAlign=bottom;edgeStyle=elbowEdgeStyle;elbow=vertical;curved=0;rounded=0;endArrow=block;" edge="1" parent="1" source="oj38en1lxCUS-liM161q-91" target="oj38en1lxCUS-liM161q-92">
          <mxGeometry relative="1" as="geometry">
            <Array as="points">
              <mxPoint x="468" y="4765" />
            </Array>
          </mxGeometry>
        </mxCell>
        <mxCell id="oj38en1lxCUS-liM161q-98" value="Vælg Tilføj Aktivitets til Workshop" style="verticalAlign=bottom;edgeStyle=elbowEdgeStyle;elbow=vertical;curved=0;rounded=0;endArrow=block;" edge="1" parent="1" source="oj38en1lxCUS-liM161q-91" target="oj38en1lxCUS-liM161q-92">
          <mxGeometry relative="1" as="geometry">
            <Array as="points">
              <mxPoint x="468" y="4817" />
            </Array>
          </mxGeometry>
        </mxCell>
        <mxCell id="oj38en1lxCUS-liM161q-99" value="Tilføjer Aktivitets Workshops tilknyttede Aktivitet-liste og fjerne fra tilgængelige Aktivitet-liste" style="verticalAlign=bottom;edgeStyle=elbowEdgeStyle;elbow=vertical;curved=0;rounded=0;endArrow=block;" edge="1" parent="1" source="oj38en1lxCUS-liM161q-92" target="oj38en1lxCUS-liM161q-91">
          <mxGeometry relative="1" as="geometry">
            <Array as="points">
              <mxPoint x="471" y="4869" />
            </Array>
          </mxGeometry>
        </mxCell>
        <mxCell id="oj38en1lxCUS-liM161q-100" value="&lt;span style=&quot;color: rgb(0, 0, 0); font-family: Helvetica; font-style: normal; font-variant-ligatures: normal; font-variant-caps: normal; letter-spacing: normal; orphans: 2; text-align: center; text-indent: 0px; text-transform: none; widows: 2; word-spacing: 0px; -webkit-text-stroke-width: 0px; white-space: normal; background-color: rgb(236, 236, 236); text-decoration-thickness: initial; text-decoration-style: initial; text-decoration-color: initial; float: none; display: inline !important;&quot;&gt;&lt;b style=&quot;&quot;&gt;&lt;font style=&quot;font-size: 18px;&quot;&gt;UC11&lt;/font&gt;&lt;/b&gt;&lt;/span&gt;" style="text;whiteSpace=wrap;html=1;" vertex="1" parent="1">
          <mxGeometry x="40" y="5010" width="70" height="35" as="geometry" />
        </mxCell>
        <mxCell id="oj38en1lxCUS-liM161q-101" value="Brugeren" style="shape=umlLifeline;perimeter=lifelinePerimeter;whiteSpace=wrap;container=1;dropTarget=0;collapsible=0;recursiveResize=0;outlineConnect=0;portConstraint=eastwest;newEdgeStyle={&quot;edgeStyle&quot;:&quot;elbowEdgeStyle&quot;,&quot;elbow&quot;:&quot;vertical&quot;,&quot;curved&quot;:0,&quot;rounded&quot;:0};size=65;" vertex="1" parent="1">
          <mxGeometry x="20" y="5070" width="150" height="472" as="geometry" />
        </mxCell>
        <mxCell id="oj38en1lxCUS-liM161q-102" value="System" style="shape=umlLifeline;perimeter=lifelinePerimeter;whiteSpace=wrap;container=1;dropTarget=0;collapsible=0;recursiveResize=0;outlineConnect=0;portConstraint=eastwest;newEdgeStyle={&quot;edgeStyle&quot;:&quot;elbowEdgeStyle&quot;,&quot;elbow&quot;:&quot;vertical&quot;,&quot;curved&quot;:0,&quot;rounded&quot;:0};size=65;" vertex="1" parent="1">
          <mxGeometry x="597" y="5070" width="150" height="472" as="geometry" />
        </mxCell>
        <mxCell id="oj38en1lxCUS-liM161q-103" value="Vælg Pakke-liste view" style="verticalAlign=bottom;edgeStyle=elbowEdgeStyle;elbow=vertical;curved=0;rounded=0;endArrow=block;" edge="1" parent="1" source="oj38en1lxCUS-liM161q-101" target="oj38en1lxCUS-liM161q-102">
          <mxGeometry relative="1" as="geometry">
            <Array as="points">
              <mxPoint x="392" y="5177" />
            </Array>
          </mxGeometry>
        </mxCell>
        <mxCell id="oj38en1lxCUS-liM161q-104" value="Pakke-liste View" style="verticalAlign=bottom;edgeStyle=elbowEdgeStyle;elbow=vertical;curved=0;rounded=0;endArrow=block;" edge="1" parent="1" source="oj38en1lxCUS-liM161q-102" target="oj38en1lxCUS-liM161q-101">
          <mxGeometry relative="1" as="geometry">
            <Array as="points">
              <mxPoint x="395" y="5229" />
            </Array>
          </mxGeometry>
        </mxCell>
        <mxCell id="oj38en1lxCUS-liM161q-105" value="Vælg Workshop fra Workshop-liste" style="verticalAlign=bottom;edgeStyle=elbowEdgeStyle;elbow=vertical;curved=0;rounded=0;endArrow=block;" edge="1" parent="1" source="oj38en1lxCUS-liM161q-101" target="oj38en1lxCUS-liM161q-102">
          <mxGeometry relative="1" as="geometry">
            <Array as="points">
              <mxPoint x="392" y="5281" />
            </Array>
          </mxGeometry>
        </mxCell>
        <mxCell id="oj38en1lxCUS-liM161q-106" value="Liste over kasser og løst liggende materialer." style="verticalAlign=bottom;edgeStyle=elbowEdgeStyle;elbow=vertical;curved=0;rounded=0;endArrow=block;" edge="1" parent="1" source="oj38en1lxCUS-liM161q-102" target="oj38en1lxCUS-liM161q-101">
          <mxGeometry relative="1" as="geometry">
            <Array as="points">
              <mxPoint x="395" y="5333" />
            </Array>
          </mxGeometry>
        </mxCell>
        <mxCell id="oj38en1lxCUS-liM161q-107" value="Vælg Print" style="verticalAlign=bottom;edgeStyle=elbowEdgeStyle;elbow=vertical;curved=0;rounded=0;endArrow=block;" edge="1" parent="1" source="oj38en1lxCUS-liM161q-101" target="oj38en1lxCUS-liM161q-102">
          <mxGeometry relative="1" as="geometry">
            <Array as="points">
              <mxPoint x="392" y="5385" />
            </Array>
          </mxGeometry>
        </mxCell>
        <mxCell id="oj38en1lxCUS-liM161q-108" value="PDF produceres over kasser og materialer som, skal bruges til workshop" style="verticalAlign=bottom;edgeStyle=elbowEdgeStyle;elbow=vertical;curved=0;rounded=0;endArrow=block;" edge="1" parent="1" source="oj38en1lxCUS-liM161q-102" target="oj38en1lxCUS-liM161q-101">
          <mxGeometry relative="1" as="geometry">
            <Array as="points">
              <mxPoint x="395" y="5437" />
            </Array>
          </mxGeometry>
        </mxCell>
        <mxCell id="oj38en1lxCUS-liM161q-109" value="&lt;span style=&quot;color: rgb(0, 0, 0); font-family: Helvetica; font-style: normal; font-variant-ligatures: normal; font-variant-caps: normal; letter-spacing: normal; orphans: 2; text-align: center; text-indent: 0px; text-transform: none; widows: 2; word-spacing: 0px; -webkit-text-stroke-width: 0px; white-space: normal; background-color: rgb(236, 236, 236); text-decoration-thickness: initial; text-decoration-style: initial; text-decoration-color: initial; float: none; display: inline !important;&quot;&gt;&lt;b style=&quot;&quot;&gt;&lt;font style=&quot;font-size: 18px;&quot;&gt;UC17&lt;/font&gt;&lt;/b&gt;&lt;/span&gt;" style="text;whiteSpace=wrap;html=1;" vertex="1" parent="1">
          <mxGeometry x="50" y="5620" width="70" height="35" as="geometry" />
        </mxCell>
        <mxCell id="oj38en1lxCUS-liM161q-110" value="Brugeren" style="shape=umlLifeline;perimeter=lifelinePerimeter;whiteSpace=wrap;container=1;dropTarget=0;collapsible=0;recursiveResize=0;outlineConnect=0;portConstraint=eastwest;newEdgeStyle={&quot;edgeStyle&quot;:&quot;elbowEdgeStyle&quot;,&quot;elbow&quot;:&quot;vertical&quot;,&quot;curved&quot;:0,&quot;rounded&quot;:0};size=65;" vertex="1" parent="1">
          <mxGeometry x="20" y="5680" width="150" height="420" as="geometry" />
        </mxCell>
        <mxCell id="oj38en1lxCUS-liM161q-111" value="System" style="shape=umlLifeline;perimeter=lifelinePerimeter;whiteSpace=wrap;container=1;dropTarget=0;collapsible=0;recursiveResize=0;outlineConnect=0;portConstraint=eastwest;newEdgeStyle={&quot;edgeStyle&quot;:&quot;elbowEdgeStyle&quot;,&quot;elbow&quot;:&quot;vertical&quot;,&quot;curved&quot;:0,&quot;rounded&quot;:0};size=65;" vertex="1" parent="1">
          <mxGeometry x="281" y="5680" width="150" height="420" as="geometry" />
        </mxCell>
        <mxCell id="oj38en1lxCUS-liM161q-112" value="Vælg Kasse view" style="verticalAlign=bottom;edgeStyle=elbowEdgeStyle;elbow=vertical;curved=0;rounded=0;endArrow=block;" edge="1" parent="1" source="oj38en1lxCUS-liM161q-110" target="oj38en1lxCUS-liM161q-111">
          <mxGeometry relative="1" as="geometry">
            <Array as="points">
              <mxPoint x="234" y="5787" />
            </Array>
          </mxGeometry>
        </mxCell>
        <mxCell id="oj38en1lxCUS-liM161q-113" value="Kasse View" style="verticalAlign=bottom;edgeStyle=elbowEdgeStyle;elbow=vertical;curved=0;rounded=0;endArrow=block;" edge="1" parent="1" source="oj38en1lxCUS-liM161q-111" target="oj38en1lxCUS-liM161q-110">
          <mxGeometry relative="1" as="geometry">
            <Array as="points">
              <mxPoint x="237" y="5839" />
            </Array>
          </mxGeometry>
        </mxCell>
        <mxCell id="oj38en1lxCUS-liM161q-114" value="Vælg Kasse fra Kasse-liste" style="verticalAlign=bottom;edgeStyle=elbowEdgeStyle;elbow=vertical;curved=0;rounded=0;endArrow=block;" edge="1" parent="1" source="oj38en1lxCUS-liM161q-110" target="oj38en1lxCUS-liM161q-111">
          <mxGeometry relative="1" as="geometry">
            <Array as="points">
              <mxPoint x="234" y="5891" />
            </Array>
          </mxGeometry>
        </mxCell>
        <mxCell id="oj38en1lxCUS-liM161q-115" value="Vælg Slet kasse" style="verticalAlign=bottom;edgeStyle=elbowEdgeStyle;elbow=vertical;curved=0;rounded=0;endArrow=block;" edge="1" parent="1" source="oj38en1lxCUS-liM161q-110" target="oj38en1lxCUS-liM161q-111">
          <mxGeometry relative="1" as="geometry">
            <Array as="points">
              <mxPoint x="234" y="5943" />
            </Array>
          </mxGeometry>
        </mxCell>
        <mxCell id="oj38en1lxCUS-liM161q-116" value="Kasse fjernes fra kasse-liste" style="verticalAlign=bottom;edgeStyle=elbowEdgeStyle;elbow=vertical;curved=0;rounded=0;endArrow=block;" edge="1" parent="1" source="oj38en1lxCUS-liM161q-111" target="oj38en1lxCUS-liM161q-110">
          <mxGeometry relative="1" as="geometry">
            <Array as="points">
              <mxPoint x="237" y="5995" />
            </Array>
          </mxGeometry>
        </mxCell>
        <mxCell id="oj38en1lxCUS-liM161q-117" value="&lt;span style=&quot;color: rgb(0, 0, 0); font-family: Helvetica; font-style: normal; font-variant-ligatures: normal; font-variant-caps: normal; letter-spacing: normal; orphans: 2; text-align: center; text-indent: 0px; text-transform: none; widows: 2; word-spacing: 0px; -webkit-text-stroke-width: 0px; white-space: normal; background-color: rgb(236, 236, 236); text-decoration-thickness: initial; text-decoration-style: initial; text-decoration-color: initial; float: none; display: inline !important;&quot;&gt;&lt;b style=&quot;&quot;&gt;&lt;font style=&quot;font-size: 18px;&quot;&gt;UC18&lt;/font&gt;&lt;/b&gt;&lt;/span&gt;" style="text;whiteSpace=wrap;html=1;" vertex="1" parent="1">
          <mxGeometry x="40" y="6180" width="70" height="35" as="geometry" />
        </mxCell>
        <mxCell id="oj38en1lxCUS-liM161q-118" value="Brugeren" style="shape=umlLifeline;perimeter=lifelinePerimeter;whiteSpace=wrap;container=1;dropTarget=0;collapsible=0;recursiveResize=0;outlineConnect=0;portConstraint=eastwest;newEdgeStyle={&quot;edgeStyle&quot;:&quot;elbowEdgeStyle&quot;,&quot;elbow&quot;:&quot;vertical&quot;,&quot;curved&quot;:0,&quot;rounded&quot;:0};size=65;" vertex="1" parent="1">
          <mxGeometry x="20" y="6240" width="150" height="420" as="geometry" />
        </mxCell>
        <mxCell id="oj38en1lxCUS-liM161q-119" value="System" style="shape=umlLifeline;perimeter=lifelinePerimeter;whiteSpace=wrap;container=1;dropTarget=0;collapsible=0;recursiveResize=0;outlineConnect=0;portConstraint=eastwest;newEdgeStyle={&quot;edgeStyle&quot;:&quot;elbowEdgeStyle&quot;,&quot;elbow&quot;:&quot;vertical&quot;,&quot;curved&quot;:0,&quot;rounded&quot;:0};size=65;" vertex="1" parent="1">
          <mxGeometry x="336" y="6240" width="150" height="420" as="geometry" />
        </mxCell>
        <mxCell id="oj38en1lxCUS-liM161q-120" value="Vælg Materiale view" style="verticalAlign=bottom;edgeStyle=elbowEdgeStyle;elbow=vertical;curved=0;rounded=0;endArrow=block;" edge="1" parent="1" source="oj38en1lxCUS-liM161q-118" target="oj38en1lxCUS-liM161q-119">
          <mxGeometry relative="1" as="geometry">
            <Array as="points">
              <mxPoint x="262" y="6347" />
            </Array>
          </mxGeometry>
        </mxCell>
        <mxCell id="oj38en1lxCUS-liM161q-121" value="Materiale View" style="verticalAlign=bottom;edgeStyle=elbowEdgeStyle;elbow=vertical;curved=0;rounded=0;endArrow=block;" edge="1" parent="1" source="oj38en1lxCUS-liM161q-119" target="oj38en1lxCUS-liM161q-118">
          <mxGeometry relative="1" as="geometry">
            <Array as="points">
              <mxPoint x="265" y="6399" />
            </Array>
          </mxGeometry>
        </mxCell>
        <mxCell id="oj38en1lxCUS-liM161q-122" value="Vælg Materiale fra Materiale-liste" style="verticalAlign=bottom;edgeStyle=elbowEdgeStyle;elbow=vertical;curved=0;rounded=0;endArrow=block;" edge="1" parent="1" source="oj38en1lxCUS-liM161q-118" target="oj38en1lxCUS-liM161q-119">
          <mxGeometry relative="1" as="geometry">
            <Array as="points">
              <mxPoint x="262" y="6451" />
            </Array>
          </mxGeometry>
        </mxCell>
        <mxCell id="oj38en1lxCUS-liM161q-123" value="Vælg Slet Materiale" style="verticalAlign=bottom;edgeStyle=elbowEdgeStyle;elbow=vertical;curved=0;rounded=0;endArrow=block;" edge="1" parent="1" source="oj38en1lxCUS-liM161q-118" target="oj38en1lxCUS-liM161q-119">
          <mxGeometry relative="1" as="geometry">
            <Array as="points">
              <mxPoint x="262" y="6503" />
            </Array>
          </mxGeometry>
        </mxCell>
        <mxCell id="oj38en1lxCUS-liM161q-124" value="Materiale fjernes fra Materiale-liste" style="verticalAlign=bottom;edgeStyle=elbowEdgeStyle;elbow=vertical;curved=0;rounded=0;endArrow=block;" edge="1" parent="1" source="oj38en1lxCUS-liM161q-119" target="oj38en1lxCUS-liM161q-118">
          <mxGeometry relative="1" as="geometry">
            <Array as="points">
              <mxPoint x="265" y="6555" />
            </Array>
          </mxGeometry>
        </mxCell>
        <mxCell id="oj38en1lxCUS-liM161q-125" value="&lt;span style=&quot;color: rgb(0, 0, 0); font-family: Helvetica; font-style: normal; font-variant-ligatures: normal; font-variant-caps: normal; letter-spacing: normal; orphans: 2; text-align: center; text-indent: 0px; text-transform: none; widows: 2; word-spacing: 0px; -webkit-text-stroke-width: 0px; white-space: normal; background-color: rgb(236, 236, 236); text-decoration-thickness: initial; text-decoration-style: initial; text-decoration-color: initial; float: none; display: inline !important;&quot;&gt;&lt;b style=&quot;&quot;&gt;&lt;font style=&quot;font-size: 18px;&quot;&gt;UC19&lt;/font&gt;&lt;/b&gt;&lt;/span&gt;" style="text;whiteSpace=wrap;html=1;" vertex="1" parent="1">
          <mxGeometry x="40" y="6720" width="70" height="35" as="geometry" />
        </mxCell>
        <mxCell id="oj38en1lxCUS-liM161q-126" value="Brugeren" style="shape=umlLifeline;perimeter=lifelinePerimeter;whiteSpace=wrap;container=1;dropTarget=0;collapsible=0;recursiveResize=0;outlineConnect=0;portConstraint=eastwest;newEdgeStyle={&quot;edgeStyle&quot;:&quot;elbowEdgeStyle&quot;,&quot;elbow&quot;:&quot;vertical&quot;,&quot;curved&quot;:0,&quot;rounded&quot;:0};size=65;" vertex="1" parent="1">
          <mxGeometry x="20" y="6770" width="150" height="420" as="geometry" />
        </mxCell>
        <mxCell id="oj38en1lxCUS-liM161q-127" value="System" style="shape=umlLifeline;perimeter=lifelinePerimeter;whiteSpace=wrap;container=1;dropTarget=0;collapsible=0;recursiveResize=0;outlineConnect=0;portConstraint=eastwest;newEdgeStyle={&quot;edgeStyle&quot;:&quot;elbowEdgeStyle&quot;,&quot;elbow&quot;:&quot;vertical&quot;,&quot;curved&quot;:0,&quot;rounded&quot;:0};size=65;" vertex="1" parent="1">
          <mxGeometry x="328" y="6770" width="150" height="420" as="geometry" />
        </mxCell>
        <mxCell id="oj38en1lxCUS-liM161q-128" value="Vælg Aktivitet view" style="verticalAlign=bottom;edgeStyle=elbowEdgeStyle;elbow=vertical;curved=0;rounded=0;endArrow=block;" edge="1" parent="1" source="oj38en1lxCUS-liM161q-126" target="oj38en1lxCUS-liM161q-127">
          <mxGeometry relative="1" as="geometry">
            <Array as="points">
              <mxPoint x="258" y="6877" />
            </Array>
          </mxGeometry>
        </mxCell>
        <mxCell id="oj38en1lxCUS-liM161q-129" value="Aktivitet View" style="verticalAlign=bottom;edgeStyle=elbowEdgeStyle;elbow=vertical;curved=0;rounded=0;endArrow=block;" edge="1" parent="1" source="oj38en1lxCUS-liM161q-127" target="oj38en1lxCUS-liM161q-126">
          <mxGeometry relative="1" as="geometry">
            <Array as="points">
              <mxPoint x="261" y="6929" />
            </Array>
          </mxGeometry>
        </mxCell>
        <mxCell id="oj38en1lxCUS-liM161q-130" value="Vælg Aktivitet fra Aktivitet-liste" style="verticalAlign=bottom;edgeStyle=elbowEdgeStyle;elbow=vertical;curved=0;rounded=0;endArrow=block;" edge="1" parent="1" source="oj38en1lxCUS-liM161q-126" target="oj38en1lxCUS-liM161q-127">
          <mxGeometry relative="1" as="geometry">
            <Array as="points">
              <mxPoint x="258" y="6981" />
            </Array>
          </mxGeometry>
        </mxCell>
        <mxCell id="oj38en1lxCUS-liM161q-131" value="Vælg Slet Aktivitet" style="verticalAlign=bottom;edgeStyle=elbowEdgeStyle;elbow=vertical;curved=0;rounded=0;endArrow=block;" edge="1" parent="1" source="oj38en1lxCUS-liM161q-126" target="oj38en1lxCUS-liM161q-127">
          <mxGeometry relative="1" as="geometry">
            <Array as="points">
              <mxPoint x="258" y="7033" />
            </Array>
          </mxGeometry>
        </mxCell>
        <mxCell id="oj38en1lxCUS-liM161q-132" value="Aktivitet fjernes fra Aktivitets-liste" style="verticalAlign=bottom;edgeStyle=elbowEdgeStyle;elbow=vertical;curved=0;rounded=0;endArrow=block;" edge="1" parent="1" source="oj38en1lxCUS-liM161q-127" target="oj38en1lxCUS-liM161q-126">
          <mxGeometry relative="1" as="geometry">
            <Array as="points">
              <mxPoint x="261" y="7085" />
            </Array>
          </mxGeometry>
        </mxCell>
        <mxCell id="oj38en1lxCUS-liM161q-134" value="&lt;span style=&quot;color: rgb(0, 0, 0); font-family: Helvetica; font-style: normal; font-variant-ligatures: normal; font-variant-caps: normal; letter-spacing: normal; orphans: 2; text-align: center; text-indent: 0px; text-transform: none; widows: 2; word-spacing: 0px; -webkit-text-stroke-width: 0px; white-space: normal; background-color: rgb(236, 236, 236); text-decoration-thickness: initial; text-decoration-style: initial; text-decoration-color: initial; float: none; display: inline !important;&quot;&gt;&lt;b style=&quot;&quot;&gt;&lt;font style=&quot;font-size: 18px;&quot;&gt;UC20&lt;/font&gt;&lt;/b&gt;&lt;/span&gt;" style="text;whiteSpace=wrap;html=1;" vertex="1" parent="1">
          <mxGeometry x="40" y="7270" width="70" height="35" as="geometry" />
        </mxCell>
        <mxCell id="oj38en1lxCUS-liM161q-135" value="Brugeren" style="shape=umlLifeline;perimeter=lifelinePerimeter;whiteSpace=wrap;container=1;dropTarget=0;collapsible=0;recursiveResize=0;outlineConnect=0;portConstraint=eastwest;newEdgeStyle={&quot;edgeStyle&quot;:&quot;elbowEdgeStyle&quot;,&quot;elbow&quot;:&quot;vertical&quot;,&quot;curved&quot;:0,&quot;rounded&quot;:0};size=65;" vertex="1" parent="1">
          <mxGeometry x="20" y="7330" width="150" height="420" as="geometry" />
        </mxCell>
        <mxCell id="oj38en1lxCUS-liM161q-136" value="System" style="shape=umlLifeline;perimeter=lifelinePerimeter;whiteSpace=wrap;container=1;dropTarget=0;collapsible=0;recursiveResize=0;outlineConnect=0;portConstraint=eastwest;newEdgeStyle={&quot;edgeStyle&quot;:&quot;elbowEdgeStyle&quot;,&quot;elbow&quot;:&quot;vertical&quot;,&quot;curved&quot;:0,&quot;rounded&quot;:0};size=65;" vertex="1" parent="1">
          <mxGeometry x="348" y="7330" width="150" height="420" as="geometry" />
        </mxCell>
        <mxCell id="oj38en1lxCUS-liM161q-137" value="Vælg Workshop view" style="verticalAlign=bottom;edgeStyle=elbowEdgeStyle;elbow=vertical;curved=0;rounded=0;endArrow=block;" edge="1" parent="1" source="oj38en1lxCUS-liM161q-135" target="oj38en1lxCUS-liM161q-136">
          <mxGeometry relative="1" as="geometry">
            <Array as="points">
              <mxPoint x="268" y="7437" />
            </Array>
          </mxGeometry>
        </mxCell>
        <mxCell id="oj38en1lxCUS-liM161q-138" value="Workshop View" style="verticalAlign=bottom;edgeStyle=elbowEdgeStyle;elbow=vertical;curved=0;rounded=0;endArrow=block;" edge="1" parent="1" source="oj38en1lxCUS-liM161q-136" target="oj38en1lxCUS-liM161q-135">
          <mxGeometry relative="1" as="geometry">
            <Array as="points">
              <mxPoint x="271" y="7489" />
            </Array>
          </mxGeometry>
        </mxCell>
        <mxCell id="oj38en1lxCUS-liM161q-139" value="Vælg Workshop fra Workshop-liste" style="verticalAlign=bottom;edgeStyle=elbowEdgeStyle;elbow=vertical;curved=0;rounded=0;endArrow=block;" edge="1" parent="1" source="oj38en1lxCUS-liM161q-135" target="oj38en1lxCUS-liM161q-136">
          <mxGeometry relative="1" as="geometry">
            <Array as="points">
              <mxPoint x="268" y="7541" />
            </Array>
          </mxGeometry>
        </mxCell>
        <mxCell id="oj38en1lxCUS-liM161q-140" value="Vælg Slet Workshop" style="verticalAlign=bottom;edgeStyle=elbowEdgeStyle;elbow=vertical;curved=0;rounded=0;endArrow=block;" edge="1" parent="1" source="oj38en1lxCUS-liM161q-135" target="oj38en1lxCUS-liM161q-136">
          <mxGeometry relative="1" as="geometry">
            <Array as="points">
              <mxPoint x="268" y="7593" />
            </Array>
          </mxGeometry>
        </mxCell>
        <mxCell id="oj38en1lxCUS-liM161q-141" value="Workshop fjernes fra Workshop-liste" style="verticalAlign=bottom;edgeStyle=elbowEdgeStyle;elbow=vertical;curved=0;rounded=0;endArrow=block;" edge="1" parent="1" source="oj38en1lxCUS-liM161q-136" target="oj38en1lxCUS-liM161q-135">
          <mxGeometry relative="1" as="geometry">
            <Array as="points">
              <mxPoint x="271" y="7645" />
            </Array>
          </mxGeometry>
        </mxCell>
        <mxCell id="oj38en1lxCUS-liM161q-142" value="&lt;span style=&quot;color: rgb(0, 0, 0); font-family: Helvetica; font-style: normal; font-variant-ligatures: normal; font-variant-caps: normal; letter-spacing: normal; orphans: 2; text-align: center; text-indent: 0px; text-transform: none; widows: 2; word-spacing: 0px; -webkit-text-stroke-width: 0px; white-space: normal; background-color: rgb(236, 236, 236); text-decoration-thickness: initial; text-decoration-style: initial; text-decoration-color: initial; float: none; display: inline !important;&quot;&gt;&lt;b style=&quot;&quot;&gt;&lt;font style=&quot;font-size: 18px;&quot;&gt;UC21&lt;/font&gt;&lt;/b&gt;&lt;/span&gt;" style="text;whiteSpace=wrap;html=1;" vertex="1" parent="1">
          <mxGeometry x="40" y="7810" width="70" height="35" as="geometry" />
        </mxCell>
        <mxCell id="oj38en1lxCUS-liM161q-143" value="Brugeren" style="shape=umlLifeline;perimeter=lifelinePerimeter;whiteSpace=wrap;container=1;dropTarget=0;collapsible=0;recursiveResize=0;outlineConnect=0;portConstraint=eastwest;newEdgeStyle={&quot;edgeStyle&quot;:&quot;elbowEdgeStyle&quot;,&quot;elbow&quot;:&quot;vertical&quot;,&quot;curved&quot;:0,&quot;rounded&quot;:0};size=65;" vertex="1" parent="1">
          <mxGeometry x="20" y="7870" width="150" height="524" as="geometry" />
        </mxCell>
        <mxCell id="oj38en1lxCUS-liM161q-144" value="System" style="shape=umlLifeline;perimeter=lifelinePerimeter;whiteSpace=wrap;container=1;dropTarget=0;collapsible=0;recursiveResize=0;outlineConnect=0;portConstraint=eastwest;newEdgeStyle={&quot;edgeStyle&quot;:&quot;elbowEdgeStyle&quot;,&quot;elbow&quot;:&quot;vertical&quot;,&quot;curved&quot;:0,&quot;rounded&quot;:0};size=65;" vertex="1" parent="1">
          <mxGeometry x="405" y="7870" width="150" height="524" as="geometry" />
        </mxCell>
        <mxCell id="oj38en1lxCUS-liM161q-145" value="Vælg Aktivit view" style="verticalAlign=bottom;edgeStyle=elbowEdgeStyle;elbow=vertical;curved=0;rounded=0;endArrow=block;" edge="1" parent="1" source="oj38en1lxCUS-liM161q-143" target="oj38en1lxCUS-liM161q-144">
          <mxGeometry relative="1" as="geometry">
            <Array as="points">
              <mxPoint x="296" y="7977" />
            </Array>
          </mxGeometry>
        </mxCell>
        <mxCell id="oj38en1lxCUS-liM161q-146" value="Aktivit View" style="verticalAlign=bottom;edgeStyle=elbowEdgeStyle;elbow=vertical;curved=0;rounded=0;endArrow=block;" edge="1" parent="1" source="oj38en1lxCUS-liM161q-144" target="oj38en1lxCUS-liM161q-143">
          <mxGeometry relative="1" as="geometry">
            <Array as="points">
              <mxPoint x="299" y="8029" />
            </Array>
          </mxGeometry>
        </mxCell>
        <mxCell id="oj38en1lxCUS-liM161q-147" value="Vælg Aktivit fra Aktivit-liste" style="verticalAlign=bottom;edgeStyle=elbowEdgeStyle;elbow=vertical;curved=0;rounded=0;endArrow=block;" edge="1" parent="1" source="oj38en1lxCUS-liM161q-143" target="oj38en1lxCUS-liM161q-144">
          <mxGeometry relative="1" as="geometry">
            <Array as="points">
              <mxPoint x="296" y="8081" />
            </Array>
          </mxGeometry>
        </mxCell>
        <mxCell id="oj38en1lxCUS-liM161q-148" value="Tilknyttede Materialer vises" style="verticalAlign=bottom;edgeStyle=elbowEdgeStyle;elbow=vertical;curved=0;rounded=0;endArrow=block;" edge="1" parent="1" source="oj38en1lxCUS-liM161q-144" target="oj38en1lxCUS-liM161q-143">
          <mxGeometry relative="1" as="geometry">
            <Array as="points">
              <mxPoint x="299" y="8133" />
            </Array>
          </mxGeometry>
        </mxCell>
        <mxCell id="oj38en1lxCUS-liM161q-149" value="Vælg Materiale" style="verticalAlign=bottom;edgeStyle=elbowEdgeStyle;elbow=vertical;curved=0;rounded=0;endArrow=block;" edge="1" parent="1" source="oj38en1lxCUS-liM161q-143" target="oj38en1lxCUS-liM161q-144">
          <mxGeometry relative="1" as="geometry">
            <Array as="points">
              <mxPoint x="296" y="8185" />
            </Array>
          </mxGeometry>
        </mxCell>
        <mxCell id="oj38en1lxCUS-liM161q-150" value="Vælg fjerne Materiale fra Aktivitet" style="verticalAlign=bottom;edgeStyle=elbowEdgeStyle;elbow=vertical;curved=0;rounded=0;endArrow=block;" edge="1" parent="1" source="oj38en1lxCUS-liM161q-143" target="oj38en1lxCUS-liM161q-144">
          <mxGeometry relative="1" as="geometry">
            <Array as="points">
              <mxPoint x="296" y="8237" />
            </Array>
          </mxGeometry>
        </mxCell>
        <mxCell id="oj38en1lxCUS-liM161q-151" value="Materiale fjernes fra Aktivitets Materiale-liste" style="verticalAlign=bottom;edgeStyle=elbowEdgeStyle;elbow=vertical;curved=0;rounded=0;endArrow=block;" edge="1" parent="1" source="oj38en1lxCUS-liM161q-144" target="oj38en1lxCUS-liM161q-143">
          <mxGeometry relative="1" as="geometry">
            <Array as="points">
              <mxPoint x="299" y="8289" />
            </Array>
          </mxGeometry>
        </mxCell>
        <mxCell id="oj38en1lxCUS-liM161q-152" value="&lt;span style=&quot;color: rgb(0, 0, 0); font-family: Helvetica; font-style: normal; font-variant-ligatures: normal; font-variant-caps: normal; letter-spacing: normal; orphans: 2; text-align: center; text-indent: 0px; text-transform: none; widows: 2; word-spacing: 0px; -webkit-text-stroke-width: 0px; white-space: normal; background-color: rgb(236, 236, 236); text-decoration-thickness: initial; text-decoration-style: initial; text-decoration-color: initial; float: none; display: inline !important;&quot;&gt;&lt;b style=&quot;&quot;&gt;&lt;font style=&quot;font-size: 18px;&quot;&gt;UC22&lt;/font&gt;&lt;/b&gt;&lt;/span&gt;" style="text;whiteSpace=wrap;html=1;" vertex="1" parent="1">
          <mxGeometry x="40" y="8450" width="70" height="35" as="geometry" />
        </mxCell>
        <mxCell id="oj38en1lxCUS-liM161q-153" value="Brugeren" style="shape=umlLifeline;perimeter=lifelinePerimeter;whiteSpace=wrap;container=1;dropTarget=0;collapsible=0;recursiveResize=0;outlineConnect=0;portConstraint=eastwest;newEdgeStyle={&quot;edgeStyle&quot;:&quot;elbowEdgeStyle&quot;,&quot;elbow&quot;:&quot;vertical&quot;,&quot;curved&quot;:0,&quot;rounded&quot;:0};size=65;" vertex="1" parent="1">
          <mxGeometry x="20" y="8510" width="150" height="524" as="geometry" />
        </mxCell>
        <mxCell id="oj38en1lxCUS-liM161q-154" value="System" style="shape=umlLifeline;perimeter=lifelinePerimeter;whiteSpace=wrap;container=1;dropTarget=0;collapsible=0;recursiveResize=0;outlineConnect=0;portConstraint=eastwest;newEdgeStyle={&quot;edgeStyle&quot;:&quot;elbowEdgeStyle&quot;,&quot;elbow&quot;:&quot;vertical&quot;,&quot;curved&quot;:0,&quot;rounded&quot;:0};size=65;" vertex="1" parent="1">
          <mxGeometry x="394" y="8510" width="150" height="524" as="geometry" />
        </mxCell>
        <mxCell id="oj38en1lxCUS-liM161q-155" value="Vælg Workshop view" style="verticalAlign=bottom;edgeStyle=elbowEdgeStyle;elbow=vertical;curved=0;rounded=0;endArrow=block;" edge="1" parent="1" source="oj38en1lxCUS-liM161q-153" target="oj38en1lxCUS-liM161q-154">
          <mxGeometry relative="1" as="geometry">
            <Array as="points">
              <mxPoint x="291" y="8617" />
            </Array>
          </mxGeometry>
        </mxCell>
        <mxCell id="oj38en1lxCUS-liM161q-156" value="Workshop View" style="verticalAlign=bottom;edgeStyle=elbowEdgeStyle;elbow=vertical;curved=0;rounded=0;endArrow=block;" edge="1" parent="1" source="oj38en1lxCUS-liM161q-154" target="oj38en1lxCUS-liM161q-153">
          <mxGeometry relative="1" as="geometry">
            <Array as="points">
              <mxPoint x="294" y="8669" />
            </Array>
          </mxGeometry>
        </mxCell>
        <mxCell id="oj38en1lxCUS-liM161q-157" value="Vælg Workshop fra Workshop-liste" style="verticalAlign=bottom;edgeStyle=elbowEdgeStyle;elbow=vertical;curved=0;rounded=0;endArrow=block;" edge="1" parent="1" source="oj38en1lxCUS-liM161q-153" target="oj38en1lxCUS-liM161q-154">
          <mxGeometry relative="1" as="geometry">
            <Array as="points">
              <mxPoint x="291" y="8721" />
            </Array>
          </mxGeometry>
        </mxCell>
        <mxCell id="oj38en1lxCUS-liM161q-158" value="Viser workshops tilknyttede aktiviteter." style="verticalAlign=bottom;edgeStyle=elbowEdgeStyle;elbow=vertical;curved=0;rounded=0;endArrow=block;" edge="1" parent="1" source="oj38en1lxCUS-liM161q-154" target="oj38en1lxCUS-liM161q-153">
          <mxGeometry relative="1" as="geometry">
            <Array as="points">
              <mxPoint x="294" y="8773" />
            </Array>
          </mxGeometry>
        </mxCell>
        <mxCell id="oj38en1lxCUS-liM161q-159" value="Vælg Aktivitet fra workshops aktivitets-liste" style="verticalAlign=bottom;edgeStyle=elbowEdgeStyle;elbow=vertical;curved=0;rounded=0;endArrow=block;" edge="1" parent="1" source="oj38en1lxCUS-liM161q-153" target="oj38en1lxCUS-liM161q-154">
          <mxGeometry relative="1" as="geometry">
            <Array as="points">
              <mxPoint x="291" y="8825" />
            </Array>
          </mxGeometry>
        </mxCell>
        <mxCell id="oj38en1lxCUS-liM161q-160" value="Vælg Fjern Aktivitet fra Workshop" style="verticalAlign=bottom;edgeStyle=elbowEdgeStyle;elbow=vertical;curved=0;rounded=0;endArrow=block;" edge="1" parent="1" source="oj38en1lxCUS-liM161q-153" target="oj38en1lxCUS-liM161q-154">
          <mxGeometry relative="1" as="geometry">
            <Array as="points">
              <mxPoint x="291" y="8877" />
            </Array>
          </mxGeometry>
        </mxCell>
        <mxCell id="oj38en1lxCUS-liM161q-161" value="Aktivitet fjernes fra aktivitets-liste" style="verticalAlign=bottom;edgeStyle=elbowEdgeStyle;elbow=vertical;curved=0;rounded=0;endArrow=block;" edge="1" parent="1" source="oj38en1lxCUS-liM161q-154" target="oj38en1lxCUS-liM161q-153">
          <mxGeometry relative="1" as="geometry">
            <Array as="points">
              <mxPoint x="294" y="8929" />
            </Array>
          </mxGeometry>
        </mxCell>
        <mxCell id="oj38en1lxCUS-liM161q-162" value="&lt;span style=&quot;color: rgb(0, 0, 0); font-family: Helvetica; font-style: normal; font-variant-ligatures: normal; font-variant-caps: normal; letter-spacing: normal; orphans: 2; text-align: center; text-indent: 0px; text-transform: none; widows: 2; word-spacing: 0px; -webkit-text-stroke-width: 0px; white-space: normal; background-color: rgb(236, 236, 236); text-decoration-thickness: initial; text-decoration-style: initial; text-decoration-color: initial; float: none; display: inline !important;&quot;&gt;&lt;b style=&quot;&quot;&gt;&lt;font style=&quot;font-size: 18px;&quot;&gt;UC23&lt;/font&gt;&lt;/b&gt;&lt;/span&gt;" style="text;whiteSpace=wrap;html=1;" vertex="1" parent="1">
          <mxGeometry x="40" y="9120" width="70" height="35" as="geometry" />
        </mxCell>
        <mxCell id="oj38en1lxCUS-liM161q-163" value="Brugeren" style="shape=umlLifeline;perimeter=lifelinePerimeter;whiteSpace=wrap;container=1;dropTarget=0;collapsible=0;recursiveResize=0;outlineConnect=0;portConstraint=eastwest;newEdgeStyle={&quot;edgeStyle&quot;:&quot;elbowEdgeStyle&quot;,&quot;elbow&quot;:&quot;vertical&quot;,&quot;curved&quot;:0,&quot;rounded&quot;:0};size=65;" vertex="1" parent="1">
          <mxGeometry x="20" y="9180" width="150" height="524" as="geometry" />
        </mxCell>
        <mxCell id="oj38en1lxCUS-liM161q-164" value="System" style="shape=umlLifeline;perimeter=lifelinePerimeter;whiteSpace=wrap;container=1;dropTarget=0;collapsible=0;recursiveResize=0;outlineConnect=0;portConstraint=eastwest;newEdgeStyle={&quot;edgeStyle&quot;:&quot;elbowEdgeStyle&quot;,&quot;elbow&quot;:&quot;vertical&quot;,&quot;curved&quot;:0,&quot;rounded&quot;:0};size=65;" vertex="1" parent="1">
          <mxGeometry x="305" y="9180" width="150" height="524" as="geometry" />
        </mxCell>
        <mxCell id="oj38en1lxCUS-liM161q-165" value="Vælg Kasse view" style="verticalAlign=bottom;edgeStyle=elbowEdgeStyle;elbow=vertical;curved=0;rounded=0;endArrow=block;" edge="1" parent="1" source="oj38en1lxCUS-liM161q-163" target="oj38en1lxCUS-liM161q-164">
          <mxGeometry relative="1" as="geometry">
            <Array as="points">
              <mxPoint x="246" y="9287" />
            </Array>
          </mxGeometry>
        </mxCell>
        <mxCell id="oj38en1lxCUS-liM161q-166" value="Kasse View" style="verticalAlign=bottom;edgeStyle=elbowEdgeStyle;elbow=vertical;curved=0;rounded=0;endArrow=block;" edge="1" parent="1" source="oj38en1lxCUS-liM161q-164" target="oj38en1lxCUS-liM161q-163">
          <mxGeometry relative="1" as="geometry">
            <Array as="points">
              <mxPoint x="249" y="9339" />
            </Array>
          </mxGeometry>
        </mxCell>
        <mxCell id="oj38en1lxCUS-liM161q-167" value="Vælg Kasse fra Kasse-liste" style="verticalAlign=bottom;edgeStyle=elbowEdgeStyle;elbow=vertical;curved=0;rounded=0;endArrow=block;" edge="1" parent="1" source="oj38en1lxCUS-liM161q-163" target="oj38en1lxCUS-liM161q-164">
          <mxGeometry relative="1" as="geometry">
            <Array as="points">
              <mxPoint x="246" y="9391" />
            </Array>
          </mxGeometry>
        </mxCell>
        <mxCell id="oj38en1lxCUS-liM161q-168" value="Viser Kasse detaljer." style="verticalAlign=bottom;edgeStyle=elbowEdgeStyle;elbow=vertical;curved=0;rounded=0;endArrow=block;" edge="1" parent="1" source="oj38en1lxCUS-liM161q-164" target="oj38en1lxCUS-liM161q-163">
          <mxGeometry relative="1" as="geometry">
            <Array as="points">
              <mxPoint x="249" y="9443" />
            </Array>
          </mxGeometry>
        </mxCell>
        <mxCell id="oj38en1lxCUS-liM161q-169" value="Vælg Æmdre Kasse detaljer" style="verticalAlign=bottom;edgeStyle=elbowEdgeStyle;elbow=vertical;curved=0;rounded=0;endArrow=block;" edge="1" parent="1" source="oj38en1lxCUS-liM161q-163" target="oj38en1lxCUS-liM161q-164">
          <mxGeometry relative="1" as="geometry">
            <Array as="points">
              <mxPoint x="246" y="9495" />
            </Array>
          </mxGeometry>
        </mxCell>
        <mxCell id="oj38en1lxCUS-liM161q-170" value="Vælg Opdater Kasse" style="verticalAlign=bottom;edgeStyle=elbowEdgeStyle;elbow=vertical;curved=0;rounded=0;endArrow=block;" edge="1" parent="1" source="oj38en1lxCUS-liM161q-163" target="oj38en1lxCUS-liM161q-164">
          <mxGeometry relative="1" as="geometry">
            <Array as="points">
              <mxPoint x="246" y="9547" />
            </Array>
          </mxGeometry>
        </mxCell>
        <mxCell id="oj38en1lxCUS-liM161q-171" value="Kasse opdateres på Kasse-liste" style="verticalAlign=bottom;edgeStyle=elbowEdgeStyle;elbow=vertical;curved=0;rounded=0;endArrow=block;" edge="1" parent="1" source="oj38en1lxCUS-liM161q-164" target="oj38en1lxCUS-liM161q-163">
          <mxGeometry relative="1" as="geometry">
            <Array as="points">
              <mxPoint x="249" y="9599" />
            </Array>
          </mxGeometry>
        </mxCell>
        <mxCell id="oj38en1lxCUS-liM161q-172" value="&lt;span style=&quot;color: rgb(0, 0, 0); font-family: Helvetica; font-style: normal; font-variant-ligatures: normal; font-variant-caps: normal; letter-spacing: normal; orphans: 2; text-align: center; text-indent: 0px; text-transform: none; widows: 2; word-spacing: 0px; -webkit-text-stroke-width: 0px; white-space: normal; background-color: rgb(236, 236, 236); text-decoration-thickness: initial; text-decoration-style: initial; text-decoration-color: initial; float: none; display: inline !important;&quot;&gt;&lt;b style=&quot;&quot;&gt;&lt;font style=&quot;font-size: 18px;&quot;&gt;UC24&lt;/font&gt;&lt;/b&gt;&lt;/span&gt;" style="text;whiteSpace=wrap;html=1;" vertex="1" parent="1">
          <mxGeometry x="40" y="9770" width="70" height="35" as="geometry" />
        </mxCell>
        <mxCell id="oj38en1lxCUS-liM161q-173" value="Brugeren" style="shape=umlLifeline;perimeter=lifelinePerimeter;whiteSpace=wrap;container=1;dropTarget=0;collapsible=0;recursiveResize=0;outlineConnect=0;portConstraint=eastwest;newEdgeStyle={&quot;edgeStyle&quot;:&quot;elbowEdgeStyle&quot;,&quot;elbow&quot;:&quot;vertical&quot;,&quot;curved&quot;:0,&quot;rounded&quot;:0};size=65;" vertex="1" parent="1">
          <mxGeometry x="20" y="9830" width="150" height="524" as="geometry" />
        </mxCell>
        <mxCell id="oj38en1lxCUS-liM161q-174" value="System" style="shape=umlLifeline;perimeter=lifelinePerimeter;whiteSpace=wrap;container=1;dropTarget=0;collapsible=0;recursiveResize=0;outlineConnect=0;portConstraint=eastwest;newEdgeStyle={&quot;edgeStyle&quot;:&quot;elbowEdgeStyle&quot;,&quot;elbow&quot;:&quot;vertical&quot;,&quot;curved&quot;:0,&quot;rounded&quot;:0};size=65;" vertex="1" parent="1">
          <mxGeometry x="359" y="9830" width="150" height="524" as="geometry" />
        </mxCell>
        <mxCell id="oj38en1lxCUS-liM161q-175" value="Vælg Materiale view" style="verticalAlign=bottom;edgeStyle=elbowEdgeStyle;elbow=vertical;curved=0;rounded=0;endArrow=block;" edge="1" parent="1" source="oj38en1lxCUS-liM161q-173" target="oj38en1lxCUS-liM161q-174">
          <mxGeometry relative="1" as="geometry">
            <Array as="points">
              <mxPoint x="273" y="9937" />
            </Array>
          </mxGeometry>
        </mxCell>
        <mxCell id="oj38en1lxCUS-liM161q-176" value="Materiale View" style="verticalAlign=bottom;edgeStyle=elbowEdgeStyle;elbow=vertical;curved=0;rounded=0;endArrow=block;" edge="1" parent="1" source="oj38en1lxCUS-liM161q-174" target="oj38en1lxCUS-liM161q-173">
          <mxGeometry relative="1" as="geometry">
            <Array as="points">
              <mxPoint x="276" y="9989" />
            </Array>
          </mxGeometry>
        </mxCell>
        <mxCell id="oj38en1lxCUS-liM161q-177" value="Vælg Materiale fra Materiale-liste" style="verticalAlign=bottom;edgeStyle=elbowEdgeStyle;elbow=vertical;curved=0;rounded=0;endArrow=block;" edge="1" parent="1" source="oj38en1lxCUS-liM161q-173" target="oj38en1lxCUS-liM161q-174">
          <mxGeometry relative="1" as="geometry">
            <Array as="points">
              <mxPoint x="273" y="10041" />
            </Array>
          </mxGeometry>
        </mxCell>
        <mxCell id="oj38en1lxCUS-liM161q-178" value="Viser Materiale detaljer." style="verticalAlign=bottom;edgeStyle=elbowEdgeStyle;elbow=vertical;curved=0;rounded=0;endArrow=block;" edge="1" parent="1" source="oj38en1lxCUS-liM161q-174" target="oj38en1lxCUS-liM161q-173">
          <mxGeometry relative="1" as="geometry">
            <Array as="points">
              <mxPoint x="276" y="10093" />
            </Array>
          </mxGeometry>
        </mxCell>
        <mxCell id="oj38en1lxCUS-liM161q-179" value="Vælg Ændre Materiale detaljer" style="verticalAlign=bottom;edgeStyle=elbowEdgeStyle;elbow=vertical;curved=0;rounded=0;endArrow=block;" edge="1" parent="1" source="oj38en1lxCUS-liM161q-173" target="oj38en1lxCUS-liM161q-174">
          <mxGeometry relative="1" as="geometry">
            <Array as="points">
              <mxPoint x="273" y="10145" />
            </Array>
          </mxGeometry>
        </mxCell>
        <mxCell id="oj38en1lxCUS-liM161q-180" value="Vælg Opdater Materiale" style="verticalAlign=bottom;edgeStyle=elbowEdgeStyle;elbow=vertical;curved=0;rounded=0;endArrow=block;" edge="1" parent="1" source="oj38en1lxCUS-liM161q-173" target="oj38en1lxCUS-liM161q-174">
          <mxGeometry relative="1" as="geometry">
            <Array as="points">
              <mxPoint x="273" y="10197" />
            </Array>
          </mxGeometry>
        </mxCell>
        <mxCell id="oj38en1lxCUS-liM161q-181" value="Materiale opdateres på Materiale-liste" style="verticalAlign=bottom;edgeStyle=elbowEdgeStyle;elbow=vertical;curved=0;rounded=0;endArrow=block;" edge="1" parent="1" source="oj38en1lxCUS-liM161q-174" target="oj38en1lxCUS-liM161q-173">
          <mxGeometry relative="1" as="geometry">
            <Array as="points">
              <mxPoint x="276" y="10249" />
            </Array>
          </mxGeometry>
        </mxCell>
        <mxCell id="oj38en1lxCUS-liM161q-182" value="&lt;span style=&quot;color: rgb(0, 0, 0); font-family: Helvetica; font-style: normal; font-variant-ligatures: normal; font-variant-caps: normal; letter-spacing: normal; orphans: 2; text-align: center; text-indent: 0px; text-transform: none; widows: 2; word-spacing: 0px; -webkit-text-stroke-width: 0px; white-space: normal; background-color: rgb(236, 236, 236); text-decoration-thickness: initial; text-decoration-style: initial; text-decoration-color: initial; float: none; display: inline !important;&quot;&gt;&lt;b style=&quot;&quot;&gt;&lt;font style=&quot;font-size: 18px;&quot;&gt;UC26&lt;/font&gt;&lt;/b&gt;&lt;/span&gt;" style="text;whiteSpace=wrap;html=1;" vertex="1" parent="1">
          <mxGeometry x="40" y="10410" width="70" height="35" as="geometry" />
        </mxCell>
        <mxCell id="oj38en1lxCUS-liM161q-183" value="&lt;span style=&quot;color: rgb(0, 0, 0); font-family: Helvetica; font-style: normal; font-variant-ligatures: normal; font-variant-caps: normal; letter-spacing: normal; orphans: 2; text-align: center; text-indent: 0px; text-transform: none; widows: 2; word-spacing: 0px; -webkit-text-stroke-width: 0px; white-space: normal; background-color: rgb(236, 236, 236); text-decoration-thickness: initial; text-decoration-style: initial; text-decoration-color: initial; float: none; display: inline !important;&quot;&gt;&lt;b style=&quot;&quot;&gt;&lt;font style=&quot;font-size: 18px;&quot;&gt;UC27&lt;/font&gt;&lt;/b&gt;&lt;/span&gt;" style="text;whiteSpace=wrap;html=1;" vertex="1" parent="1">
          <mxGeometry x="40" y="11050" width="70" height="35" as="geometry" />
        </mxCell>
        <mxCell id="oj38en1lxCUS-liM161q-184" value="Brugeren" style="shape=umlLifeline;perimeter=lifelinePerimeter;whiteSpace=wrap;container=1;dropTarget=0;collapsible=0;recursiveResize=0;outlineConnect=0;portConstraint=eastwest;newEdgeStyle={&quot;edgeStyle&quot;:&quot;elbowEdgeStyle&quot;,&quot;elbow&quot;:&quot;vertical&quot;,&quot;curved&quot;:0,&quot;rounded&quot;:0};size=65;" vertex="1" parent="1">
          <mxGeometry x="20" y="10490" width="150" height="524" as="geometry" />
        </mxCell>
        <mxCell id="oj38en1lxCUS-liM161q-185" value="System" style="shape=umlLifeline;perimeter=lifelinePerimeter;whiteSpace=wrap;container=1;dropTarget=0;collapsible=0;recursiveResize=0;outlineConnect=0;portConstraint=eastwest;newEdgeStyle={&quot;edgeStyle&quot;:&quot;elbowEdgeStyle&quot;,&quot;elbow&quot;:&quot;vertical&quot;,&quot;curved&quot;:0,&quot;rounded&quot;:0};size=65;" vertex="1" parent="1">
          <mxGeometry x="344" y="10490" width="150" height="524" as="geometry" />
        </mxCell>
        <mxCell id="oj38en1lxCUS-liM161q-186" value="Vælg Aktivitet view" style="verticalAlign=bottom;edgeStyle=elbowEdgeStyle;elbow=vertical;curved=0;rounded=0;endArrow=block;" edge="1" parent="1" source="oj38en1lxCUS-liM161q-184" target="oj38en1lxCUS-liM161q-185">
          <mxGeometry relative="1" as="geometry">
            <Array as="points">
              <mxPoint x="266" y="10597" />
            </Array>
          </mxGeometry>
        </mxCell>
        <mxCell id="oj38en1lxCUS-liM161q-187" value="Aktivitet View" style="verticalAlign=bottom;edgeStyle=elbowEdgeStyle;elbow=vertical;curved=0;rounded=0;endArrow=block;" edge="1" parent="1" source="oj38en1lxCUS-liM161q-185" target="oj38en1lxCUS-liM161q-184">
          <mxGeometry relative="1" as="geometry">
            <Array as="points">
              <mxPoint x="269" y="10649" />
            </Array>
          </mxGeometry>
        </mxCell>
        <mxCell id="oj38en1lxCUS-liM161q-188" value="Vælg Aktivitet fra Aktivitet-liste" style="verticalAlign=bottom;edgeStyle=elbowEdgeStyle;elbow=vertical;curved=0;rounded=0;endArrow=block;" edge="1" parent="1" source="oj38en1lxCUS-liM161q-184" target="oj38en1lxCUS-liM161q-185">
          <mxGeometry relative="1" as="geometry">
            <Array as="points">
              <mxPoint x="266" y="10701" />
            </Array>
          </mxGeometry>
        </mxCell>
        <mxCell id="oj38en1lxCUS-liM161q-189" value="Viser Aktivitet detaljer." style="verticalAlign=bottom;edgeStyle=elbowEdgeStyle;elbow=vertical;curved=0;rounded=0;endArrow=block;" edge="1" parent="1" source="oj38en1lxCUS-liM161q-185" target="oj38en1lxCUS-liM161q-184">
          <mxGeometry relative="1" as="geometry">
            <Array as="points">
              <mxPoint x="269" y="10753" />
            </Array>
          </mxGeometry>
        </mxCell>
        <mxCell id="oj38en1lxCUS-liM161q-190" value="Vælg Ændre Aktivitet detaljer" style="verticalAlign=bottom;edgeStyle=elbowEdgeStyle;elbow=vertical;curved=0;rounded=0;endArrow=block;" edge="1" parent="1" source="oj38en1lxCUS-liM161q-184" target="oj38en1lxCUS-liM161q-185">
          <mxGeometry relative="1" as="geometry">
            <Array as="points">
              <mxPoint x="266" y="10805" />
            </Array>
          </mxGeometry>
        </mxCell>
        <mxCell id="oj38en1lxCUS-liM161q-191" value="Vælg Opdater Aktivitet" style="verticalAlign=bottom;edgeStyle=elbowEdgeStyle;elbow=vertical;curved=0;rounded=0;endArrow=block;" edge="1" parent="1" source="oj38en1lxCUS-liM161q-184" target="oj38en1lxCUS-liM161q-185">
          <mxGeometry relative="1" as="geometry">
            <Array as="points">
              <mxPoint x="266" y="10857" />
            </Array>
          </mxGeometry>
        </mxCell>
        <mxCell id="oj38en1lxCUS-liM161q-192" value="Aktivitet opdateres på Aktivitet-liste" style="verticalAlign=bottom;edgeStyle=elbowEdgeStyle;elbow=vertical;curved=0;rounded=0;endArrow=block;" edge="1" parent="1" source="oj38en1lxCUS-liM161q-185" target="oj38en1lxCUS-liM161q-184">
          <mxGeometry relative="1" as="geometry">
            <Array as="points">
              <mxPoint x="269" y="10909" />
            </Array>
          </mxGeometry>
        </mxCell>
        <mxCell id="oj38en1lxCUS-liM161q-193" value="Brugeren" style="shape=umlLifeline;perimeter=lifelinePerimeter;whiteSpace=wrap;container=1;dropTarget=0;collapsible=0;recursiveResize=0;outlineConnect=0;portConstraint=eastwest;newEdgeStyle={&quot;edgeStyle&quot;:&quot;elbowEdgeStyle&quot;,&quot;elbow&quot;:&quot;vertical&quot;,&quot;curved&quot;:0,&quot;rounded&quot;:0};size=65;" vertex="1" parent="1">
          <mxGeometry x="20" y="11110" width="150" height="524" as="geometry" />
        </mxCell>
        <mxCell id="oj38en1lxCUS-liM161q-194" value="System" style="shape=umlLifeline;perimeter=lifelinePerimeter;whiteSpace=wrap;container=1;dropTarget=0;collapsible=0;recursiveResize=0;outlineConnect=0;portConstraint=eastwest;newEdgeStyle={&quot;edgeStyle&quot;:&quot;elbowEdgeStyle&quot;,&quot;elbow&quot;:&quot;vertical&quot;,&quot;curved&quot;:0,&quot;rounded&quot;:0};size=65;" vertex="1" parent="1">
          <mxGeometry x="379" y="11110" width="150" height="524" as="geometry" />
        </mxCell>
        <mxCell id="oj38en1lxCUS-liM161q-195" value="Vælg workshops view" style="verticalAlign=bottom;edgeStyle=elbowEdgeStyle;elbow=vertical;curved=0;rounded=0;endArrow=block;" edge="1" parent="1" source="oj38en1lxCUS-liM161q-193" target="oj38en1lxCUS-liM161q-194">
          <mxGeometry relative="1" as="geometry">
            <Array as="points">
              <mxPoint x="283" y="11217" />
            </Array>
          </mxGeometry>
        </mxCell>
        <mxCell id="oj38en1lxCUS-liM161q-196" value="workshops View" style="verticalAlign=bottom;edgeStyle=elbowEdgeStyle;elbow=vertical;curved=0;rounded=0;endArrow=block;" edge="1" parent="1" source="oj38en1lxCUS-liM161q-194" target="oj38en1lxCUS-liM161q-193">
          <mxGeometry relative="1" as="geometry">
            <Array as="points">
              <mxPoint x="286" y="11269" />
            </Array>
          </mxGeometry>
        </mxCell>
        <mxCell id="oj38en1lxCUS-liM161q-197" value="Vælg workshops fra workshops-liste" style="verticalAlign=bottom;edgeStyle=elbowEdgeStyle;elbow=vertical;curved=0;rounded=0;endArrow=block;" edge="1" parent="1" source="oj38en1lxCUS-liM161q-193" target="oj38en1lxCUS-liM161q-194">
          <mxGeometry relative="1" as="geometry">
            <Array as="points">
              <mxPoint x="283" y="11321" />
            </Array>
          </mxGeometry>
        </mxCell>
        <mxCell id="oj38en1lxCUS-liM161q-198" value="Viser workshops detaljer." style="verticalAlign=bottom;edgeStyle=elbowEdgeStyle;elbow=vertical;curved=0;rounded=0;endArrow=block;" edge="1" parent="1" source="oj38en1lxCUS-liM161q-194" target="oj38en1lxCUS-liM161q-193">
          <mxGeometry relative="1" as="geometry">
            <Array as="points">
              <mxPoint x="286" y="11373" />
            </Array>
          </mxGeometry>
        </mxCell>
        <mxCell id="oj38en1lxCUS-liM161q-199" value="Vælg Ændre workshops detaljer" style="verticalAlign=bottom;edgeStyle=elbowEdgeStyle;elbow=vertical;curved=0;rounded=0;endArrow=block;" edge="1" parent="1" source="oj38en1lxCUS-liM161q-193" target="oj38en1lxCUS-liM161q-194">
          <mxGeometry relative="1" as="geometry">
            <Array as="points">
              <mxPoint x="283" y="11425" />
            </Array>
          </mxGeometry>
        </mxCell>
        <mxCell id="oj38en1lxCUS-liM161q-200" value="Vælg Opdater workshops" style="verticalAlign=bottom;edgeStyle=elbowEdgeStyle;elbow=vertical;curved=0;rounded=0;endArrow=block;" edge="1" parent="1" source="oj38en1lxCUS-liM161q-193" target="oj38en1lxCUS-liM161q-194">
          <mxGeometry relative="1" as="geometry">
            <Array as="points">
              <mxPoint x="283" y="11477" />
            </Array>
          </mxGeometry>
        </mxCell>
        <mxCell id="oj38en1lxCUS-liM161q-201" value="workshops opdateres på workshops-liste" style="verticalAlign=bottom;edgeStyle=elbowEdgeStyle;elbow=vertical;curved=0;rounded=0;endArrow=block;" edge="1" parent="1" source="oj38en1lxCUS-liM161q-194" target="oj38en1lxCUS-liM161q-193">
          <mxGeometry relative="1" as="geometry">
            <Array as="points">
              <mxPoint x="286" y="11529" />
            </Array>
          </mxGeometry>
        </mxCell>
      </root>
    </mxGraphModel>
  </diagram>
</mxfile>
